<svg width="430" height="37" fill="none" xmlns="http://www.w3.org/2000/svg" xmlns:xlink="http://www.w3.org/1999/xlink"><use xlink:href="#a" transform="rotate(32.34 -2.453 4.682) scale(.00961)"/><use xlink:href="#a" transform="translate(1.842 .873) scale(.0189)"/><use xlink:href="#a" transform="matrix(.01864 .00618 -.00618 .01864 6.164 -.13)"/><use xlink:href="#a" transform="rotate(30.696 4.158 19) scale(.0168)"/><use xlink:href="#a" transform="matrix(-.01017 -.01595 .01595 -.01017 13.172 8.61)"/><use xlink:href="#a" transform="rotate(-55.68 11.308 -11.407) scale(.00952)"/><use xlink:href="#a" transform="rotate(135.99 10.811 7.014) scale(.0193)"/><use xlink:href="#a" transform="rotate(18.254 6.55 63.565) scale(.01568)"/><use xlink:href="#a" transform="rotate(-53.277 15.362 -19.057) scale(.01154)"/><use xlink:href="#a" transform="rotate(107.393 15.126 12.524) scale(.02231)"/><use xlink:href="#a" transform="matrix(.01183 .00397 -.00397 .01183 28.576 1.465)"/><use xlink:href="#a" transform="matrix(.00437 -.00808 .00808 .00437 29.581 4.594)"/><use xlink:href="#a" transform="rotate(168.496 18.492 5.343) scale(.01904)"/><use xlink:href="#a" transform="matrix(.00524 .01053 -.01053 .00524 37.47 1.836)"/><use xlink:href="#a" transform="matrix(-.013 .01515 -.01515 -.013 43.863 4.205)"/><use xlink:href="#a" transform="rotate(-36.821 25.703 -57.344) scale(.0094)"/><use xlink:href="#a" transform="rotate(-176.644 22.96 2.544) scale(.01395)"/><use xlink:href="#a" transform="rotate(-167.071 24.486 1.148) scale(.0163)"/><use xlink:href="#a" transform="matrix(-.01448 -.01897 .01897 -.01448 48.644 10.044)"/><use xlink:href="#a" transform="matrix(-.00305 .00962 -.00962 -.00305 54.393 3.332)"/><use xlink:href="#a" transform="rotate(-126.893 28.638 -9.872) scale(.01262)"/><use xlink:href="#a" transform="rotate(-155.251 30.462 -1.727) scale(.02243)"/><use xlink:href="#a" transform="matrix(.00255 -.01964 .01964 .00255 56.907 6.933)"/><use xlink:href="#a" transform="rotate(-29.729 35.061 -110.119) scale(.02132)"/><use xlink:href="#a" transform="rotate(119.666 34.638 22.344) scale(.01739)"/><use xlink:href="#a" transform="matrix(-.0109 .01254 -.01254 -.0109 73.972 3.918)"/><use xlink:href="#a" transform="rotate(-153.166 37.515 -5.367) scale(.01264)"/><use xlink:href="#a" transform="matrix(.01032 -.00782 .00782 .01032 71.665 3.627)"/><use xlink:href="#a" transform="matrix(-.00947 -.00064 .00064 -.00947 77.966 6.13)"/><use xlink:href="#a" transform="matrix(-.0093 .00157 -.00157 -.0093 79.882 5.833)"/><use xlink:href="#a" transform="matrix(.00116 -.02449 .02449 .00116 76.639 7.834)"/><use xlink:href="#a" transform="rotate(53.611 41.741 84.195) scale(.01476)"/><use xlink:href="#a" transform="rotate(-24.42 50.059 -192.516) scale(.01032)"/><use xlink:href="#a" transform="matrix(-.0104 .00273 -.00273 -.0104 90.195 5.747)"/><use xlink:href="#a" transform="matrix(-.01529 .0188 -.0188 -.01529 96.597 3.576)"/><use xlink:href="#a" transform="matrix(-.01137 .01444 -.01444 -.01137 98.776 3.955)"/><use xlink:href="#a" transform="rotate(5.807 38.517 946.718) scale(.01774)"/><use xlink:href="#a" transform="matrix(0 -.0093 .0093 0 98.204 5.925)"/><use xlink:href="#a" transform="rotate(61.92 52.848 86.184) scale(.02259)"/><use xlink:href="#a" transform="matrix(.00044 -.01533 .01533 .00044 102.937 6.557)"/><use xlink:href="#a" transform="matrix(.00658 .00721 -.00721 .00658 107.798 2.177)"/><use xlink:href="#a" transform="matrix(.02437 -.00207 .00207 .02437 106.189 .66)"/><use xlink:href="#a" transform="rotate(33.629 53.634 187.837) scale(.00951)"/><use xlink:href="#a" transform="matrix(.01428 -.01668 .01668 .01428 110.838 4.407)"/><use xlink:href="#a" transform="matrix(-.01601 .00262 -.00262 -.01601 122.192 6.661)"/><use xlink:href="#a" transform="matrix(-.00334 .02206 -.02206 -.00334 126.584 1.371)"/><use xlink:href="#a" transform="matrix(.00654 -.01507 .01507 .00654 121.983 5.513)"/><use xlink:href="#a" transform="rotate(-78.321 66.147 -74.626) scale(.00962)"/><use xlink:href="#a" transform="rotate(90.284 65.609 66.754) scale(.01649)"/><use xlink:href="#a" transform="rotate(14.671 58.424 508.938) scale(.0113)"/><use xlink:href="#a" transform="rotate(-165.954 69.24 -4.19) scale(.02116)"/><use xlink:href="#a" transform="matrix(.00858 .01493 -.01493 .00858 139.228 .279)"/><use xlink:href="#a" transform="matrix(-.01175 .0074 -.0074 -.01175 143.875 5.01)"/><use xlink:href="#a" transform="rotate(-152.063 72.582 -14.556) scale(.0111)"/><use xlink:href="#a" transform="rotate(12.764 71.526 638.61) scale(.02182)"/><use xlink:href="#a" transform="rotate(-134.167 75.735 -27.687) scale(.013)"/><use xlink:href="#a" transform="matrix(-.0084 -.00727 .00727 -.0084 150.604 6.611)"/><use xlink:href="#a" transform="rotate(61.804 74.818 128.823) scale(.01052)"/><use xlink:href="#a" transform="matrix(-.00837 .00566 -.00566 -.00837 156.28 4.537)"/><use xlink:href="#a" transform="matrix(-.0123 .00054 -.00054 -.0123 157.932 6.034)"/><use xlink:href="#a" transform="rotate(137.992 81.38 34.034) scale(.02453)"/><use xlink:href="#a" transform="rotate(7.81 61.76 1170.4) scale(.01054)"/><use xlink:href="#a" transform="rotate(-11.662 93.589 -789.252) scale(.01168)"/><use xlink:href="#a" transform="matrix(-.00098 .01055 -.01055 -.00098 167.453 2.776)"/><use xlink:href="#a" transform="rotate(39.944 82.25 230.848) scale(.01438)"/><use xlink:href="#a" transform="rotate(-3.625 130.232 -2721.359) scale(.01226)"/><use xlink:href="#a" transform="matrix(-.00157 -.0184 .0184 -.00157 169.558 7.342)"/><use xlink:href="#a" transform="rotate(126.875 87.918 46.514) scale(.01254)"/><use xlink:href="#a" transform="rotate(28.986 88.603 341.308) scale(.0203)"/><use xlink:href="#a" transform="matrix(-.0166 -.0027 .0027 -.0166 183.05 7.182)"/><use xlink:href="#a" transform="rotate(100.912 91.582 77.76) scale(.011)"/><use xlink:href="#a" transform="rotate(72.211 94.145 129.056) scale(.02205)"/><use xlink:href="#a" transform="matrix(.00188 .00979 -.00979 .00188 189.857 2.41)"/><use xlink:href="#a" transform="matrix(.01574 -.01706 .01706 .01574 185.862 4.373)"/><use xlink:href="#a" transform="rotate(88.407 96.557 102) scale(.01053)"/><use xlink:href="#a" transform="rotate(111.969 99.172 68.891) scale(.0173)"/><use xlink:href="#a" transform="rotate(20.66 92.722 544.377) scale(.00925)"/><use xlink:href="#a" transform="rotate(-111.144 101.803 -65.112) scale(.01016)"/><use xlink:href="#a" transform="rotate(-114.89 103.584 -59.428) scale(.02328)"/><use xlink:href="#a" transform="matrix(-.02031 -.01354 .01354 -.02031 208.046 10.064)"/><use xlink:href="#a" transform="rotate(-35.491 109.555 -322.076) scale(.01179)"/><use xlink:href="#a" transform="matrix(-.011 .00012 -.00012 -.011 213.726 6.294)"/><use xlink:href="#a" transform="matrix(-.0149 -.00827 .00827 -.0149 215.295 7.854)"/><use xlink:href="#a" transform="matrix(.01788 -.01462 .01462 .01788 212.221 3.907)"/><use xlink:href="#a" transform="matrix(-.00072 .01814 -.01814 -.00072 224.177 1.285)"/><use xlink:href="#a" transform="rotate(-39.219 115.332 -306.113) scale(.02048)"/><use xlink:href="#a" transform="rotate(-73.666 116.003 -147.096) scale(.01151)"/><use xlink:href="#a" transform="rotate(-55.929 117.359 -211.089) scale(.0095)"/><use xlink:href="#a" transform="rotate(-6.006 131.182 -2152.942) scale(.0163)"/><use xlink:href="#a" transform="rotate(105.261 118.158 91.995) scale(.02033)"/><use xlink:href="#a" transform="matrix(.0231 .00245 -.00245 .0231 234.117 .243)"/><use xlink:href="#a" transform="rotate(-39.811 122.98 -324.277) scale(.02195)"/><use xlink:href="#a" transform="rotate(-135.203 124.226 -45.872) scale(.01999)"/><use xlink:href="#a" transform="matrix(.00835 .01014 -.01014 .00835 247.826 1.042)"/><use xlink:href="#a" transform="matrix(-.01572 -.01386 .01386 -.01572 250.578 9.145)"/><use xlink:href="#a" transform="matrix(-.00172 -.0124 .0124 -.00172 251.324 6.253)"/><use xlink:href="#a" transform="rotate(-97.831 129.608 -107.11) scale(.01262)"/><use xlink:href="#a" transform="matrix(.01446 -.0104 .0104 .01446 253.642 3.298)"/><use xlink:href="#a" transform="matrix(.0101 -.00108 .00108 .0101 258.245 2.818)"/><use xlink:href="#a" transform="matrix(.02335 .00182 -.00182 .02335 259.363 -.264)"/><use xlink:href="#a" transform="rotate(-4.548 153.948 -3262.07) scale(.01395)"/><use xlink:href="#a" transform="matrix(.00214 -.00964 .00964 .00214 266.003 5.543)"/><use xlink:href="#a" transform="matrix(-.00113 .01614 -.01614 -.00113 273.021 1.578)"/><use xlink:href="#a" transform="matrix(-.01027 -.01523 .01523 -.01027 272.138 8.606)"/><use xlink:href="#a" transform="rotate(-22.859 143.71 -672.196) scale(.01383)"/><use xlink:href="#a" transform="rotate(-42.263 141.66 -351.442) scale(.02441)"/><use xlink:href="#a" transform="rotate(-124.703 142.94 -69.632) scale(.01688)"/><use xlink:href="#a" transform="matrix(-.0163 .00712 -.00712 -.0163 289.055 6.07)"/><use xlink:href="#a" transform="rotate(-6.562 167.377 -2479.29) scale(.00935)"/><use xlink:href="#a" transform="matrix(.01398 -.00034 .00034 .01398 287.065 2.116)"/><use xlink:href="#a" transform="matrix(.00507 -.02313 .02313 .00507 287.84 7.219)"/><use xlink:href="#a" transform="matrix(.00518 -.00997 .00997 .00518 292.934 5.201)"/><use xlink:href="#a" transform="rotate(134.293 148.941 65.288) scale(.01036)"/><use xlink:href="#a" transform="rotate(167.007 151.129 20.506) scale(.01746)"/><use xlink:href="#a" transform="rotate(32.658 150.32 515) scale(.01746)"/><use xlink:href="#a" transform="matrix(-.0107 -.0004 .0004 -.0107 306.498 6.364)"/><use xlink:href="#a" transform="rotate(78.792 152.271 188.72) scale(.00957)"/><use xlink:href="#a" transform="matrix(.00095 .01715 -.01715 .00095 311.448 1.443)"/><use xlink:href="#a" transform="matrix(-.0112 .00884 -.00884 -.0112 314.661 4.686)"/><use xlink:href="#a" transform="matrix(.01623 -.01538 .01538 .01623 309.176 4.237)"/><use xlink:href="#a" transform="matrix(-.00272 -.02146 .02146 -.00272 314.918 8.165)"/><use xlink:href="#a" transform="rotate(58.431 162.4 288.363) scale(.0226)"/><use xlink:href="#a" transform="matrix(-.01146 .00177 -.00177 -.01146 326.762 6.026)"/><use xlink:href="#a" transform="rotate(-153.779 164.288 -35.008) scale(.01018)"/><use xlink:href="#a" transform="matrix(-.00148 -.0161 .0161 -.00148 326.149 7.283)"/><use xlink:href="#a" transform="rotate(-107.907 167.216 -116.651) scale(.01243)"/><use xlink:href="#a" transform="matrix(.0006 -.00948 .00948 .0006 331.125 5.826)"/><use xlink:href="#a" transform="matrix(-.00587 .01475 -.01475 -.00587 338.35 2.816)"/><use xlink:href="#a" transform="matrix(.00122 -.01129 .01129 .00122 335.102 5.953)"/><use xlink:href="#a" transform="matrix(.01025 .019 -.019 .01025 341.438 -.711)"/><use xlink:href="#a" transform="matrix(-.00358 .01333 -.01333 -.00358 345.697 2.603)"/><use xlink:href="#a" transform="matrix(-.0004 -.01714 .01714 -.0004 342.654 7.363)"/><use xlink:href="#a" transform="rotate(58.153 176.314 314.315) scale(.02432)"/><use xlink:href="#a" transform="rotate(-37.212 180.19 -516.373) scale(.0127)"/><use xlink:href="#a" transform="matrix(-.0011 -.01336 .01336 -.0011 352.107 6.715)"/><use xlink:href="#a" transform="matrix(.0078 -.02299 .02299 .0078 352.182 6.923)"/><use xlink:href="#a" transform="rotate(73.869 182.646 241.775) scale(.0243)"/><use xlink:href="#a" transform="rotate(163.165 183.217 30.06) scale(.01361)"/><use xlink:href="#a" transform="rotate(147.954 183.628 55.458) scale(.00986)"/><use xlink:href="#a" transform="rotate(16.858 184.986 1238.741) scale(.0226)"/><use xlink:href="#a" transform="rotate(135.139 186.593 79.429) scale(.01211)"/><use xlink:href="#a" transform="rotate(-171.097 188.082 -11.234) scale(.0117)"/><use xlink:href="#a" transform="rotate(-83.652 190.276 -205.819) scale(.01228)"/><use xlink:href="#a" transform="rotate(163.254 189.499 30.59) scale(.00954)"/><use xlink:href="#a" transform="rotate(-53.445 192.835 -371.375) scale(.01621)"/><use xlink:href="#a" transform="rotate(50.247 189.049 408.851) scale(.00983)"/><use xlink:href="#a" transform="rotate(101.403 194.204 159.935) scale(.02286)"/><use xlink:href="#a" transform="matrix(.02233 .00181 -.00181 .02233 385.308 .028)"/><use xlink:href="#a" transform="matrix(-.00633 .007 -.007 -.00633 393.508 4.373)"/><use xlink:href="#a" transform="rotate(56.257 194.927 369.083) scale(.01094)"/><use xlink:href="#a" transform="matrix(-.0147 -.00928 .00928 -.0147 396.204 7.937)"/><use xlink:href="#a" transform="matrix(.007 -.00858 .00858 .007 395.148 4.284)"/><use xlink:href="#a" transform="rotate(-43.917 203.242 -488.81) scale(.01816)"/><use xlink:href="#a" transform="matrix(-.02339 -.00609 .00609 -.02339 406.486 9.177)"/><use xlink:href="#a" transform="matrix(-.01474 -.00059 .00059 -.01474 409.236 6.896)"/><use xlink:href="#a" transform="rotate(13.508 195.993 1723.78) scale(.01214)"/><use xlink:href="#a" transform="matrix(-.01144 -.01175 .01175 -.01144 411.445 8)"/><use xlink:href="#a" transform="rotate(-87.933 209.65 -208.826) scale(.02362)"/><use xlink:href="#a" transform="matrix(.0146 .00414 -.00414 .0146 416.417 .996)"/><use xlink:href="#a" transform="matrix(.00027 .0096 -.0096 .00027 421.734 2.676)"/><use xlink:href="#a" transform="matrix(.00593 .0128 -.0128 .00593 423.318 1.442)"/><use xlink:href="#a" transform="matrix(.001 -.01106 .01106 .001 422.228 5.794)"/><use xlink:href="#a" transform="rotate(-178.173 214.088 .358) scale(.01193)"/><use xlink:href="#a" transform="rotate(-15.19 224.457 -1596.825) scale(.00907)"/><use xlink:href="#b" transform="rotate(32.34 -26.094 11.535) scale(.00961)"/><use xlink:href="#b" transform="translate(1.842 14.587) scale(.0189)"/><use xlink:href="#b" transform="matrix(.01864 .00618 -.00618 .01864 6.164 13.584)"/><use xlink:href="#b" transform="rotate(30.696 -20.817 25.852) scale(.0168)"/><use xlink:href="#b" transform="matrix(-.01017 -.01595 .01595 -.01017 13.172 22.325)"/><use xlink:href="#b" transform="rotate(-55.68 24.29 -4.553) scale(.00952)"/><use xlink:href="#b" transform="rotate(135.99 8.04 13.871) scale(.0193)"/><use xlink:href="#b" transform="rotate(18.254 -36.105 70.413) scale(.01568)"/><use xlink:href="#b" transform="rotate(-53.277 29.032 -12.201) scale(.01154)"/><use xlink:href="#b" transform="rotate(107.393 10.088 19.381) scale(.02231)"/><use xlink:href="#b" transform="matrix(.01183 .00397 -.00397 .01183 28.576 15.179)"/><use xlink:href="#b" transform="matrix(.00437 -.00808 .00808 .00437 29.581 18.308)"/><use xlink:href="#b" transform="rotate(168.496 17.8 12.2) scale(.01904)"/><use xlink:href="#b" transform="matrix(.00524 .01053 -.01053 .00524 37.47 15.55)"/><use xlink:href="#b" transform="matrix(-.013 .01515 -.01515 -.013 43.863 17.92)"/><use xlink:href="#b" transform="rotate(-36.821 46.312 -50.481) scale(.0094)"/><use xlink:href="#b" transform="rotate(-176.644 23.157 9.401) scale(.01395)"/><use xlink:href="#b" transform="rotate(-167.071 25.265 8.004) scale(.0163)"/><use xlink:href="#b" transform="matrix(-.01448 -.01897 .01897 -.01448 48.644 23.758)"/><use xlink:href="#b" transform="matrix(-.00305 .00962 -.00962 -.00305 54.393 17.046)"/><use xlink:href="#b" transform="rotate(-126.893 32.064 -3.015) scale(.01262)"/><use xlink:href="#b" transform="rotate(-155.251 31.966 5.13) scale(.02243)"/><use xlink:href="#b" transform="matrix(.00255 -.01964 .01964 .00255 56.907 20.647)"/><use xlink:href="#b" transform="rotate(-29.729 60.888 -103.266) scale(.02132)"/><use xlink:href="#b" transform="rotate(119.666 30.652 29.202) scale(.01739)"/><use xlink:href="#b" transform="matrix(-.0109 .01254 -.01254 -.0109 73.972 17.632)"/><use xlink:href="#b" transform="rotate(-153.166 39.151 1.49) scale(.01264)"/><use xlink:href="#b" transform="matrix(.01032 -.00782 .00782 .01032 71.665 17.341)"/><use xlink:href="#b" transform="matrix(-.00947 -.00064 .00064 -.00947 77.966 19.845)"/><use xlink:href="#b" transform="matrix(-.0093 .00157 -.00157 -.0093 79.882 19.547)"/><use xlink:href="#b" transform="matrix(.00116 -.02449 .02449 .00116 76.639 21.547)"/><use xlink:href="#b" transform="rotate(53.611 28.17 91.052) scale(.01476)"/><use xlink:href="#b" transform="rotate(-24.42 81.758 -185.653) scale(.01032)"/><use xlink:href="#b" transform="matrix(-.0104 .00273 -.00273 -.0104 90.195 19.46)"/><use xlink:href="#b" transform="matrix(-.01529 .0188 -.0188 -.01529 96.597 17.29)"/><use xlink:href="#b" transform="matrix(-.01137 .01444 -.01444 -.01137 98.776 17.67)"/><use xlink:href="#b" transform="rotate(5.807 -98.183 953.73) scale(.01774)"/><use xlink:href="#b" transform="matrix(0 -.0093 .0093 0 98.204 19.639)"/><use xlink:href="#b" transform="rotate(61.92 41.418 93.04) scale(.02259)"/><use xlink:href="#b" transform="matrix(.00044 -.01533 .01533 .00044 102.937 20.27)"/><use xlink:href="#b" transform="matrix(.00658 .00721 -.00721 .00658 107.798 15.891)"/><use xlink:href="#b" transform="matrix(.02437 -.00207 .00207 .02437 106.189 14.375)"/><use xlink:href="#b" transform="rotate(33.629 30.93 194.703) scale(.00951)"/><use xlink:href="#b" transform="matrix(.01428 -.01668 .01668 .01428 110.838 18.121)"/><use xlink:href="#b" transform="matrix(-.01601 .00262 -.00262 -.01601 122.192 20.375)"/><use xlink:href="#b" transform="scale(-.0223) rotate(-81.396 -3230.579 2960.9)"/><use xlink:href="#b" transform="matrix(.00654 -.01507 .01507 .00654 121.983 19.227)"/><use xlink:href="#b" transform="rotate(-78.321 74.566 -67.77) scale(.00962)"/><use xlink:href="#b" transform="rotate(90.284 58.786 73.611) scale(.01649)"/><use xlink:href="#b" transform="rotate(14.671 5.207 515.782) scale(.0113)"/><use xlink:href="#b" transform="rotate(-165.954 70.084 2.667) scale(.02116)"/><use xlink:href="#b" transform="matrix(.00858 .01493 -.01493 .00858 139.228 13.993)"/><use xlink:href="#b" transform="matrix(-.01175 .0074 -.0074 -.01175 143.875 18.723)"/><use xlink:href="#b" transform="rotate(-152.063 74.289 -7.7) scale(.0111)"/><use xlink:href="#b" transform="rotate(12.764 10.227 645.465) scale(.02182)"/><use xlink:href="#b" transform="rotate(-134.167 78.634 -20.83) scale(.013)"/><use xlink:href="#b" transform="matrix(-.0084 -.00727 .00727 -.0084 150.604 20.325)"/><use xlink:href="#b" transform="rotate(61.804 63.361 135.68) scale(.01052)"/><use xlink:href="#b" transform="matrix(-.00837 .00566 -.00566 -.00837 156.28 18.25)"/><use xlink:href="#b" transform="matrix(-.0123 .00054 -.00054 -.0123 157.932 19.748)"/><use xlink:href="#b" transform="rotate(137.992 78.747 40.891) scale(.02453)"/><use xlink:href="#b" transform="rotate(7.81 -38.23 1177.195) scale(.01054)"/><use xlink:href="#b" transform="rotate(-11.662 160.758 -782.39) scale(.01168)"/><use xlink:href="#b" transform="matrix(-.00098 .01055 -.01055 -.00098 167.453 16.49)"/><use xlink:href="#b" transform="rotate(39.944 63.376 237.71) scale(.01438)"/><use xlink:href="#b" transform="rotate(-3.625 352.887 -2714.118) scale(.01226)"/><use xlink:href="#b" transform="matrix(-.00157 -.0184 .0184 -.00157 169.558 21.056)"/><use xlink:href="#b" transform="rotate(126.875 84.49 53.372) scale(.01254)"/><use xlink:href="#b" transform="rotate(28.986 62.069 348.168) scale(.0203)"/><use xlink:href="#b" transform="matrix(-.0166 -.0027 .0027 -.0166 183.05 20.896)"/><use xlink:href="#b" transform="rotate(100.912 85.921 84.618) scale(.011)"/><use xlink:href="#b" transform="rotate(72.211 84.744 135.912) scale(.02205)"/><use xlink:href="#b" transform="matrix(.00188 .00979 -.00979 .00188 189.857 16.123)"/><use xlink:href="#b" transform="matrix(.01574 -.01706 .01706 .01574 185.862 18.087)"/><use xlink:href="#b" transform="rotate(88.407 89.507 108.859) scale(.01053)"/><use xlink:href="#b" transform="rotate(111.969 94.545 75.749) scale(.0173)"/><use xlink:href="#b" transform="rotate(20.66 55.052 551.253) scale(.00925)"/><use xlink:href="#b" transform="rotate(-111.144 106.503 -58.255) scale(.01016)"/><use xlink:href="#b" transform="rotate(-114.89 107.961 -52.571) scale(.02328)"/><use xlink:href="#b" transform="matrix(-.02031 -.01354 .01354 -.02031 208.046 23.778)"/><use xlink:href="#b" transform="rotate(-35.491 130.986 -315.216) scale(.01179)"/><use xlink:href="#b" transform="matrix(-.011 .00012 -.00012 -.011 213.726 20.008)"/><use xlink:href="#b" transform="matrix(-.0149 -.00827 .00827 -.0149 215.295 21.568)"/><use xlink:href="#b" transform="matrix(.01788 -.01462 .01462 .01788 212.221 17.62)"/><use xlink:href="#b" transform="matrix(-.00072 .01814 -.01814 -.00072 224.177 14.999)"/><use xlink:href="#b" transform="rotate(-39.219 134.582 -299.253) scale(.02048)"/><use xlink:href="#b" transform="rotate(-73.666 125.158 -140.238) scale(.01151)"/><use xlink:href="#b" transform="rotate(-55.929 130.274 -204.232) scale(.0095)"/><use xlink:href="#b" transform="rotate(-6.006 260.816 -2146.198) scale(.0163)"/><use xlink:href="#b" transform="rotate(105.261 112.921 98.852) scale(.02033)"/><use xlink:href="#b" transform="matrix(.0231 .00245 -.00245 .0231 234.117 13.957)"/><use xlink:href="#b" transform="rotate(-39.811 141.917 -317.42) scale(.02195)"/><use xlink:href="#b" transform="rotate(-135.203 127.052 -39.014) scale(.01999)"/><use xlink:href="#b" transform="matrix(.00835 .01014 -.01014 .00835 247.826 14.755)"/><use xlink:href="#b" transform="matrix(-.01572 -.01386 .01386 -.01572 250.578 22.859)"/><use xlink:href="#b" transform="matrix(-.00172 -.0124 .0124 -.00172 251.324 19.967)"/><use xlink:href="#b" transform="rotate(-97.831 135.586 -100.254) scale(.01262)"/><use xlink:href="#b" transform="matrix(.01446 -.0104 .0104 .01446 253.642 17.012)"/><use xlink:href="#b" transform="matrix(.0101 -.00108 .00108 .0101 258.245 16.532)"/><use xlink:href="#b" transform="matrix(.02335 .00182 -.00182 .02335 259.363 13.45)"/><use xlink:href="#b" transform="rotate(-4.548 323.764 -3255.44) scale(.01395)"/><use xlink:href="#b" transform="matrix(.00214 -.00964 .00964 .00214 266.003 19.257)"/><use xlink:href="#b" transform="matrix(-.00113 .01614 -.01614 -.00113 273.021 15.292)"/><use xlink:href="#b" transform="matrix(-.01027 -.01523 .01523 -.01027 272.138 22.32)"/><use xlink:href="#b" transform="rotate(-22.859 177.59 -665.354) scale(.01383)"/><use xlink:href="#b" transform="rotate(-42.263 159.402 -344.584) scale(.02441)"/><use xlink:href="#b" transform="rotate(-124.703 146.533 -62.775) scale(.01688)"/><use xlink:href="#b" transform="matrix(-.0163 .00712 -.00712 -.0163 289.055 19.784)"/><use xlink:href="#b" transform="rotate(-6.562 286.43 -2472.497) scale(.00935)"/><use xlink:href="#b" transform="matrix(.01398 -.00034 .00034 .01398 287.065 15.83)"/><use xlink:href="#b" transform="matrix(.00507 -.02313 .02313 .00507 287.84 20.933)"/><use xlink:href="#b" transform="matrix(.00518 -.00997 .00997 .00518 292.934 18.915)"/><use xlink:href="#b" transform="rotate(134.293 146.052 72.145) scale(.01036)"/><use xlink:href="#b" transform="rotate(167.007 150.348 27.363) scale(.01746)"/><use xlink:href="#b" transform="rotate(32.658 126.914 521.859) scale(.01746)"/><use xlink:href="#b" transform="matrix(-.0107 -.0004 .0004 -.0107 306.498 20.078)"/><use xlink:href="#b" transform="rotate(78.792 143.922 195.578) scale(.00957)"/><use xlink:href="#b" transform="matrix(.00095 .01715 -.01715 .00095 311.448 15.157)"/><use xlink:href="#b" transform="matrix(-.0112 .00884 -.00884 -.0112 314.661 18.4)"/><use xlink:href="#b" transform="matrix(.01623 -.01538 .01538 .01623 309.176 17.951)"/><use xlink:href="#b" transform="matrix(-.00272 -.02146 .02146 -.00272 314.918 21.88)"/><use xlink:href="#b" transform="rotate(58.431 150.138 295.221) scale(.0226)"/><use xlink:href="#b" transform="matrix(-.01146 .00177 -.00177 -.01146 326.762 19.74)"/><use xlink:href="#b" transform="rotate(-153.779 165.886 -28.151) scale(.01018)"/><use xlink:href="#b" transform="matrix(-.00148 -.0161 .0161 -.00148 326.149 20.997)"/><use xlink:href="#b" transform="rotate(-107.907 172.206 -109.794) scale(.01243)"/><use xlink:href="#b" transform="matrix(.0006 -.00948 .00948 .0006 331.125 19.54)"/><use xlink:href="#b" transform="matrix(-.00587 .01475 -.01475 -.00587 338.35 16.53)"/><use xlink:href="#b" transform="matrix(.00122 -.01129 .01129 .00122 335.102 19.667)"/><use xlink:href="#b" transform="matrix(.01025 .019 -.019 .01025 341.438 13.003)"/><use xlink:href="#b" transform="matrix(-.00358 .01333 -.01333 -.00358 345.697 16.317)"/><use xlink:href="#b" transform="matrix(-.0004 -.01714 .01714 -.0004 342.654 21.077)"/><use xlink:href="#b" transform="rotate(58.153 163.982 321.172) scale(.02432)"/><use xlink:href="#b" transform="rotate(-37.212 200.554 -509.52) scale(.0127)"/><use xlink:href="#b" transform="matrix(-.0011 -.01336 .01336 -.0011 352.107 20.429)"/><use xlink:href="#b" transform="matrix(.0078 -.02299 .02299 .0078 352.182 20.637)"/><use xlink:href="#b" transform="rotate(73.869 173.525 248.632) scale(.0243)"/><use xlink:href="#b" transform="rotate(163.165 182.202 36.916) scale(.01361)"/><use xlink:href="#b" transform="rotate(147.954 181.66 62.315) scale(.00986)"/><use xlink:href="#b" transform="rotate(16.858 138.656 1245.615) scale(.0226)"/><use xlink:href="#b" transform="rotate(135.139 183.762 86.286) scale(.01211)"/><use xlink:href="#b" transform="rotate(-171.097 188.611 -4.377) scale(.0117)"/><use xlink:href="#b" transform="rotate(-83.652 197.938 -198.96) scale(.01228)"/><use xlink:href="#b" transform="rotate(163.254 188.487 37.445) scale(.00954)"/><use xlink:href="#b" transform="rotate(-53.445 206.458 -364.515) scale(.01621)"/><use xlink:href="#b" transform="rotate(50.247 174.424 415.71) scale(.00983)"/><use xlink:href="#b" transform="rotate(101.403 188.592 166.792) scale(.02286)"/><use xlink:href="#b" transform="matrix(.02233 .00181 -.00181 .02233 385.308 13.742)"/><use xlink:href="#b" transform="matrix(-.00633 .007 -.007 -.00633 393.508 18.087)"/><use xlink:href="#b" transform="rotate(56.257 182.1 375.94) scale(.01094)"/><use xlink:href="#b" transform="matrix(-.0147 -.00928 .00928 -.0147 396.204 21.651)"/><use xlink:href="#b" transform="matrix(.007 -.00858 .00858 .007 395.148 17.998)"/><use xlink:href="#b" transform="matrix(.01308 -.0126 .0126 .01308 395.917 18)"/><use xlink:href="#b" transform="matrix(-.02339 -.00609 .00609 -.02339 406.486 22.89)"/><use xlink:href="#b" transform="matrix(-.01474 -.00059 .00059 -.01474 409.236 20.61)"/><use xlink:href="#b" transform="rotate(13.508 138.045 1730.649) scale(.01214)"/><use xlink:href="#b" transform="matrix(-.01144 -.01175 .01175 -.01144 411.445 21.714)"/><use xlink:href="#b" transform="rotate(-87.933 216.76 -201.969) scale(.02362)"/><use xlink:href="#b" transform="matrix(.0146 .00414 -.00414 .0146 416.417 14.71)"/><use xlink:href="#b" transform="matrix(.00027 .0096 -.0096 .00027 421.734 16.39)"/><use xlink:href="#b" transform="matrix(.00593 .0128 -.0128 .00593 423.318 15.156)"/><use xlink:href="#b" transform="matrix(.001 -.01106 .01106 .001 422.228 19.508)"/><use xlink:href="#b" transform="rotate(-178.173 214.174 7.216) scale(.01193)"/><use xlink:href="#b" transform="rotate(-15.19 275.957 -1589.948) scale(.00907)"/><use xlink:href="#c" transform="rotate(32.34 -49.735 18.387) scale(.00961)"/><use xlink:href="#c" transform="translate(1.842 28.301) scale(.0189)"/><use xlink:href="#c" transform="matrix(.01864 .00618 -.00618 .01864 6.164 27.298)"/><use xlink:href="#c" transform="rotate(30.696 -45.792 32.704) scale(.0168)"/><use xlink:href="#c" transform="matrix(-.01017 -.01595 .01595 -.01017 13.172 36.039)"/><use xlink:href="#c" transform="rotate(-55.68 37.27 2.301) scale(.00952)"/><use xlink:href="#c" transform="rotate(135.99 5.27 20.729) scale(.0193)"/><use xlink:href="#c" transform="rotate(18.254 -78.76 77.261) scale(.01568)"/><use xlink:href="#c" transform="rotate(-53.277 42.701 -5.345) scale(.01154)"/><use xlink:href="#c" transform="rotate(107.393 5.05 26.238) scale(.02231)"/><use xlink:href="#c" transform="matrix(.01183 .00397 -.00397 .01183 28.576 28.893)"/><use xlink:href="#c" transform="matrix(.00437 -.00808 .00808 .00437 29.581 32.022)"/><use xlink:href="#c" transform="rotate(168.496 17.108 19.056) scale(.01904)"/><use xlink:href="#c" transform="matrix(.00524 .01053 -.01053 .00524 37.47 29.264)"/><use xlink:href="#c" transform="matrix(-.013 .01515 -.01515 -.013 43.863 31.633)"/><use xlink:href="#c" transform="rotate(-36.821 66.92 -43.618) scale(.0094)"/><use xlink:href="#c" transform="rotate(-176.644 23.354 16.258) scale(.01395)"/><use xlink:href="#c" transform="rotate(-167.071 26.044 14.861) scale(.0163)"/><use xlink:href="#c" transform="matrix(-.01448 -.01897 .01897 -.01448 48.644 37.471)"/><use xlink:href="#c" transform="matrix(-.00305 .00962 -.00962 -.00305 54.393 30.76)"/><use xlink:href="#c" transform="rotate(-126.893 35.49 3.843) scale(.01262)"/><use xlink:href="#c" transform="rotate(-155.251 33.47 11.988) scale(.02243)"/><use xlink:href="#c" transform="matrix(.00255 -.01964 .01964 .00255 56.907 34.36)"/><use xlink:href="#c" transform="rotate(-29.729 86.714 -96.414) scale(.02132)"/><use xlink:href="#c" transform="rotate(119.666 26.667 36.06) scale(.01739)"/><use xlink:href="#c" transform="matrix(-.0109 .01254 -.01254 -.0109 73.972 31.346)"/><use xlink:href="#c" transform="rotate(-153.166 40.787 8.346) scale(.01264)"/><use xlink:href="#c" transform="matrix(.01032 -.00782 .00782 .01032 71.665 31.055)"/><use xlink:href="#c" transform="matrix(-.00947 -.00064 .00064 -.00947 77.966 33.559)"/><use xlink:href="#c" transform="matrix(-.0093 .00157 -.00157 -.0093 79.882 33.26)"/><use xlink:href="#c" transform="matrix(.00116 -.02449 .02449 .00116 76.639 35.261)"/><use xlink:href="#c" transform="rotate(53.611 14.6 97.908) scale(.01476)"/><use xlink:href="#c" transform="rotate(-24.42 113.457 -178.791) scale(.01032)"/><use xlink:href="#c" transform="matrix(-.0104 .00273 -.00273 -.0104 90.195 33.175)"/><use xlink:href="#c" transform="matrix(-.01529 .0188 -.0188 -.01529 96.597 31.004)"/><use xlink:href="#c" transform="matrix(-.01137 .01444 -.01444 -.01137 98.776 31.383)"/><use xlink:href="#c" transform="rotate(5.807 -234.883 960.74) scale(.01774)"/><use xlink:href="#c" transform="matrix(0 -.0093 .0093 0 98.204 33.353)"/><use xlink:href="#c" transform="rotate(61.92 29.988 99.896) scale(.02259)"/><use xlink:href="#c" transform="matrix(.00044 -.01533 .01533 .00044 102.937 33.985)"/><use xlink:href="#c" transform="matrix(.00658 .00721 -.00721 .00658 107.798 29.605)"/><use xlink:href="#c" transform="matrix(.02437 -.00207 .00207 .02437 106.189 28.089)"/><use xlink:href="#c" transform="rotate(33.629 8.225 201.57) scale(.00951)"/><use xlink:href="#c" transform="matrix(.01428 -.01668 .01668 .01428 110.838 31.835)"/><use xlink:href="#c" transform="matrix(-.01601 .00262 -.00262 -.01601 122.192 34.09)"/><use xlink:href="#c" transform="matrix(-.00334 .02206 -.02206 -.00334 126.584 28.8)"/><use xlink:href="#c" transform="matrix(.00654 -.01507 .01507 .00654 121.983 32.941)"/><use xlink:href="#c" transform="rotate(-78.321 82.985 -60.914) scale(.00962)"/><use xlink:href="#c" transform="rotate(90.284 51.963 80.468) scale(.01649)"/><use xlink:href="#c" transform="rotate(14.671 -48.01 522.626) scale(.0113)"/><use xlink:href="#c" transform="rotate(-165.954 70.928 9.524) scale(.02116)"/><use xlink:href="#c" transform="matrix(.00858 .01493 -.01493 .00858 139.228 27.707)"/><use xlink:href="#c" transform="matrix(-.01175 .0074 -.0074 -.01175 143.875 32.437)"/><use xlink:href="#c" transform="rotate(-152.063 75.996 -.843) scale(.0111)"/><use xlink:href="#c" transform="rotate(12.764 -51.072 652.32) scale(.02182)"/><use xlink:href="#c" transform="rotate(-134.167 81.532 -13.972) scale(.013)"/><use xlink:href="#c" transform="matrix(-.0084 -.00727 .00727 -.0084 150.604 34.039)"/><use xlink:href="#c" transform="rotate(61.804 51.904 142.539) scale(.01052)"/><use xlink:href="#c" transform="matrix(-.00837 .00566 -.00566 -.00837 156.28 31.965)"/><use xlink:href="#c" transform="matrix(-.0123 .00054 -.00054 -.0123 157.932 33.462)"/><use xlink:href="#c" transform="rotate(137.992 76.114 47.748) scale(.02453)"/><use xlink:href="#c" transform="rotate(7.81 -138.222 1183.989) scale(.01054)"/><use xlink:href="#c" transform="rotate(-11.662 227.928 -775.527) scale(.01168)"/><use xlink:href="#c" transform="matrix(-.00098 .01055 -.01055 -.00098 167.453 30.204)"/><use xlink:href="#c" transform="rotate(39.944 44.503 244.571) scale(.01438)"/><use xlink:href="#c" transform="rotate(-3.625 575.543 -2706.878) scale(.01226)"/><use xlink:href="#c" transform="matrix(-.00157 -.0184 .0184 -.00157 169.558 34.77)"/><use xlink:href="#c" transform="rotate(126.875 81.063 60.23) scale(.01254)"/><use xlink:href="#c" transform="rotate(28.986 35.535 355.029) scale(.0203)"/><use xlink:href="#c" transform="matrix(-.0166 -.0027 .0027 -.0166 183.05 34.61)"/><use xlink:href="#c" transform="rotate(100.912 80.26 91.476) scale(.011)"/><use xlink:href="#c" transform="rotate(72.211 75.343 142.769) scale(.02205)"/><use xlink:href="#c" transform="matrix(.00188 .00979 -.00979 .00188 189.857 29.837)"/><use xlink:href="#c" transform="matrix(.01574 -.01706 .01706 .01574 185.862 31.801)"/><use xlink:href="#c" transform="rotate(88.407 82.456 115.718) scale(.01053)"/><use xlink:href="#c" transform="rotate(111.969 89.917 82.606) scale(.0173)"/><use xlink:href="#c" transform="rotate(20.66 17.382 558.129) scale(.00925)"/><use xlink:href="#c" transform="rotate(-111.144 111.203 -51.398) scale(.01016)"/><use xlink:href="#c" transform="rotate(-114.89 112.339 -45.715) scale(.02328)"/><use xlink:href="#c" transform="matrix(-.02031 -.01354 .01354 -.02031 208.046 37.492)"/><use xlink:href="#c" transform="rotate(-35.491 152.417 -308.357) scale(.01179)"/><use xlink:href="#c" transform="matrix(-.011 .00012 -.00012 -.011 213.726 33.722)"/><use xlink:href="#c" transform="matrix(-.0149 -.00827 .00827 -.0149 215.295 35.282)"/><use xlink:href="#c" transform="matrix(.01788 -.01462 .01462 .01788 212.221 31.335)"/><use xlink:href="#c" transform="matrix(-.00072 .01814 -.01814 -.00072 224.177 28.713)"/><use xlink:href="#c" transform="rotate(-39.219 153.833 -292.392) scale(.02048)"/><use xlink:href="#c" transform="rotate(-73.666 134.313 -133.38) scale(.01151)"/><use xlink:href="#c" transform="rotate(-55.929 143.19 -197.375) scale(.0095)"/><use xlink:href="#c" transform="rotate(-6.006 390.45 -2139.454) scale(.0163)"/><use xlink:href="#c" transform="rotate(105.261 107.685 105.71) scale(.02033)"/><use xlink:href="#c" transform="matrix(.0231 .00245 -.00245 .0231 234.117 27.671)"/><use xlink:href="#c" transform="rotate(-39.811 160.853 -310.564) scale(.02195)"/><use xlink:href="#c" transform="rotate(-135.203 129.878 -32.157) scale(.01999)"/><use xlink:href="#c" transform="matrix(.00835 .01014 -.01014 .00835 247.826 28.47)"/><use xlink:href="#c" transform="matrix(-.01572 -.01386 .01386 -.01572 250.578 36.573)"/><use xlink:href="#c" transform="matrix(-.00172 -.0124 .0124 -.00172 251.324 33.681)"/><use xlink:href="#c" transform="rotate(-97.831 141.565 -93.398) scale(.01262)"/><use xlink:href="#c" transform="matrix(.01446 -.0104 .0104 .01446 253.642 30.726)"/><use xlink:href="#c" transform="matrix(.0101 -.00108 .00108 .0101 258.245 30.246)"/><use xlink:href="#c" transform="matrix(.02335 .00182 -.00182 .02335 259.363 27.164)"/><use xlink:href="#c" transform="rotate(-4.548 493.579 -3248.81) scale(.01395)"/><use xlink:href="#c" transform="matrix(.00214 -.00964 .00964 .00214 266.003 32.97)"/><use xlink:href="#c" transform="matrix(-.00113 .01614 -.01614 -.00113 273.021 29.006)"/><use xlink:href="#c" transform="matrix(-.01027 -.01523 .01523 -.01027 272.138 36.034)"/><use xlink:href="#c" transform="rotate(-22.859 211.472 -658.512) scale(.01383)"/><use xlink:href="#c" transform="rotate(-42.263 177.143 -337.727) scale(.02441)"/><use xlink:href="#c" transform="rotate(-124.703 150.125 -55.917) scale(.01688)"/><use xlink:href="#c" transform="matrix(-.0163 .00712 -.00712 -.0163 289.055 33.498)"/><use xlink:href="#c" transform="rotate(-6.562 405.483 -2465.704) scale(.00935)"/><use xlink:href="#c" transform="matrix(.01398 -.00034 .00034 .01398 287.065 29.544)"/><use xlink:href="#c" transform="matrix(.00507 -.02313 .02313 .00507 287.84 34.647)"/><use xlink:href="#c" transform="matrix(.00518 -.00997 .00997 .00518 292.934 32.63)"/><use xlink:href="#c" transform="rotate(134.293 143.162 79.003) scale(.01036)"/><use xlink:href="#c" transform="rotate(167.007 149.567 34.22) scale(.01746)"/><use xlink:href="#c" transform="rotate(32.658 103.507 528.717) scale(.01746)"/><use xlink:href="#c" transform="matrix(-.0107 -.0004 .0004 -.0107 306.498 33.792)"/><use xlink:href="#c" transform="rotate(78.792 135.573 202.436) scale(.00957)"/><use xlink:href="#c" transform="matrix(.00095 .01715 -.01715 .00095 311.448 28.87)"/><use xlink:href="#c" transform="matrix(-.0112 .00884 -.00884 -.0112 314.661 32.114)"/><use xlink:href="#c" transform="matrix(.01623 -.01538 .01538 .01623 309.176 31.666)"/><use xlink:href="#c" transform="matrix(-.00272 -.02146 .02146 -.00272 314.918 35.593)"/><use xlink:href="#c" transform="rotate(58.431 137.876 302.08) scale(.0226)"/><use xlink:href="#c" transform="matrix(-.01146 .00177 -.00177 -.01146 326.762 33.454)"/><use xlink:href="#c" transform="rotate(-153.779 167.483 -21.295) scale(.01018)"/><use xlink:href="#c" transform="matrix(-.00148 -.0161 .0161 -.00148 326.149 34.711)"/><use xlink:href="#c" transform="rotate(-107.907 177.197 -102.937) scale(.01243)"/><use xlink:href="#c" transform="matrix(.0006 -.00948 .00948 .0006 331.125 33.254)"/><use xlink:href="#c" transform="matrix(-.00587 .01475 -.01475 -.00587 338.35 30.244)"/><use xlink:href="#c" transform="matrix(.00122 -.01129 .01129 .00122 335.102 33.381)"/><use xlink:href="#c" transform="matrix(.01025 .019 -.019 .01025 341.438 26.717)"/><use xlink:href="#c" transform="matrix(-.00358 .01333 -.01333 -.00358 345.697 30.032)"/><use xlink:href="#c" transform="matrix(-.0004 -.01714 .01714 -.0004 342.654 34.79)"/><use xlink:href="#c" transform="rotate(58.153 151.65 328.03) scale(.02432)"/><use xlink:href="#c" transform="rotate(-37.212 220.918 -502.665) scale(.0127)"/><use xlink:href="#c" transform="matrix(-.0011 -.01336 .01336 -.0011 352.107 34.143)"/><use xlink:href="#c" transform="matrix(.0078 -.02299 .02299 .0078 352.182 34.351)"/><use xlink:href="#c" transform="rotate(73.869 164.404 255.49) scale(.0243)"/><use xlink:href="#c" transform="rotate(163.165 181.187 43.773) scale(.01361)"/><use xlink:href="#c" transform="rotate(147.954 179.69 69.172) scale(.00986)"/><use xlink:href="#c" transform="rotate(16.858 92.326 1252.49) scale(.0226)"/><use xlink:href="#c" transform="rotate(135.139 180.932 93.143) scale(.01211)"/><use xlink:href="#c" transform="rotate(-171.097 189.14 2.481) scale(.0117)"/><use xlink:href="#c" transform="rotate(-83.652 205.6 -192.103) scale(.01228)"/><use xlink:href="#c" transform="rotate(163.254 187.474 44.301) scale(.00954)"/><use xlink:href="#c" transform="rotate(-53.445 220.08 -357.656) scale(.01621)"/><use xlink:href="#c" transform="rotate(50.247 159.799 422.57) scale(.00983)"/><use xlink:href="#c" transform="rotate(101.403 182.98 173.65) scale(.02286)"/><use xlink:href="#c" transform="matrix(.02233 .00181 -.00181 .02233 385.308 27.456)"/><use xlink:href="#c" transform="matrix(-.00633 .007 -.007 -.00633 393.508 31.8)"/><use xlink:href="#c" transform="rotate(56.257 169.272 382.799) scale(.01094)"/><use xlink:href="#c" transform="matrix(-.0147 -.00928 .00928 -.0147 396.204 35.365)"/><use xlink:href="#c" transform="matrix(.007 -.00858 .00858 .007 395.148 31.712)"/><use xlink:href="#c" transform="rotate(-43.917 237.254 -475.098) scale(.01816)"/><use xlink:href="#c" transform="matrix(-.02339 -.00609 .00609 -.02339 406.486 36.605)"/><use xlink:href="#c" transform="matrix(-.01474 -.00059 .00059 -.01474 409.236 34.324)"/><use xlink:href="#c" transform="rotate(13.508 80.096 1737.518) scale(.01214)"/><use xlink:href="#c" transform="matrix(-.01144 -.01175 .01175 -.01144 411.445 35.428)"/><use xlink:href="#c" transform="rotate(-87.933 223.869 -195.112) scale(.02362)"/><use xlink:href="#c" transform="matrix(.0146 .00414 -.00414 .0146 416.417 28.424)"/><use xlink:href="#c" transform="matrix(.00027 .0096 -.0096 .00027 421.734 30.104)"/><use xlink:href="#c" transform="matrix(.00593 .0128 -.0128 .00593 423.318 28.87)"/><use xlink:href="#c" transform="matrix(.001 -.01106 .01106 .001 422.228 33.222)"/><use xlink:href="#c" transform="rotate(-178.173 214.26 14.073) scale(.01193)"/><use xlink:href="#c" transform="rotate(-15.19 327.457 -1583.07) scale(.00907)"/><defs><path d="M215.823 333.963c0-.733.3-1.033.667-.667a.948.948 0 010 1.334c-.367.366-.667.066-.667-.667zM143.424 3.977c4.632-.653 8.099 4.826 5.302 8.382-1.951 2.48-2.551 5.604-1.078 5.604.905.004 11.175 12.34 11.175 13.423 0 1.076-4.344 5.111-6.316 5.868-1.898.728-1.434 2.71.633 2.71.661 0 1.78.924 2.486 2.056 1.284 2.054 1.286 2.054 2.991.057.938-1.1 2.606-2.139 3.706-2.307 1.1-.169 2.33-.757 2.734-1.307.415-.565.741-.238.75.75.018 2.14.447 2.169 3.408.229 1.623-1.063 2.19-2.212 1.884-3.81-1.049-5.489 4.864-5.512 14.402-.058 5.289 3.024 5.527 3.005 7.663-.61 3.023-5.119 9.966-1.694 8.152 4.02-.515 1.623-.183 2.247 1.417 2.666 1.15.3 2.09.945 2.09 1.43.001.485.9.883 2 .883 2.405 0 2.51-.633.446-2.697-1.937-1.936-1.511-6.247.756-7.667 2.444-1.53 3.085-.336 1.976 3.68-.844 3.056-.725 3.569.927 4 1.042.274 1.895 1.215 1.895 2.09.001 2.117 3.922 2.083 5.479-.046 1.634-2.235 4.962-.366 4.996 2.806.022 2.026.585 2.375 4.275 2.641 3.903.283 4.25.113 4.25-2.089 0-1.598.849-2.783 2.547-3.556 5.794-2.64 9.087-.056 7.912 6.206-.627 3.341-.627 3.341 7.125 4.043 13.323 1.209 21.701 9.211 10.916 10.427-1.65.187-3.533.779-4.183 1.316-.772.639-2.504.61-5-.082-4.664-1.295-5.317-1.318-5.317-.18 0 .89 3.547 2.107 7.692 2.639 3.814.489 4.527 1.472 3.864 5.335-1.584 9.224-1.538 9.134-4.694 9.134-1.732 0-2.721-.419-2.362-1 .34-.55.194-1-.324-1-.519 0-1.178-.9-1.466-2-.316-1.208-1.364-2-2.648-2-1.169 0-2.425-.787-2.793-1.75-.688-1.803-.846-2.03-4.339-6.25-2.069-2.5-2.069-2.5-1.491.21.443 2.079.097 2.968-1.49 3.817-3.053 1.634-2.358 6.6.861 6.15 1.27-.178 2.952.21 3.737.862.841.698 2.53.908 4.115.51 2.465-.619 2.57-.53 1.263 1.08-.904 1.113-.968 1.48-.175 1.004 1.207-.725 1.687.683 1.482 4.336-.045.808 1.226 3.249 2.826 5.425 2.411 3.278 2.808 4.595 2.313 7.686-.499 3.124-.251 3.915 1.528 4.868 1.738.93 1.934 1.496 1.067 3.115-.582 1.088-.743 2.489-.358 3.114 1.359 2.199-6.627-.001-11.342-3.124-8.698-5.762-10.731-2.813-8.924 12.947.221 1.925-.023 4.035-.543 4.69-2.291 2.887-.482 6.804 3.201 6.932 1.925.067 3.95.231 4.5.365.55.134 1.77.166 2.711.072 2.294-.23 5.828 1.736 5.529 3.076-.429 1.92 7.577 1.339 13.716-.996 3.275-1.246 6.763-2.054 7.75-1.795 1.097.287 1.794-.077 1.794-.937 0-.773-.9-1.407-2-1.407-2.468 0-2.532-1.121-.227-3.967 1.774-2.19 1.774-2.191 3.655-.112 3.099 3.423 8.159.85 5.79-2.944-.993-1.589-.581-2.041 3.321-3.645 2.449-1.007 4.455-2.169 4.457-2.582.002-.412.443-.75.979-.75 1.288 0 .183 5.855-1.664 8.817-1.092 1.751-1.167 2.651-.309 3.686 1.283 1.545-.226 5.368-2.692 6.822-.804.474-1.149 1.608-.812 2.669.406 1.279-.025 2.039-1.405 2.477-1.193.378-1.772 1.202-1.445 2.054.599 1.563-1.168 3.716-3.898 4.75-.962.364-1.75 1.619-1.75 2.789 0 2.226-3.33 7.595-5.963 9.615-1.366 1.047-1.342 1.254.215 1.857 1.184.459 2.39-.086 3.717-1.678 2.104-2.526 2.666-1.913 1.038 1.131-.844 1.574-.541 1.954 2 2.512 3.869.85 4.064 4.832.493 10.094-3.324 4.898-3.182 6.036 1.488 11.905 2.188 2.75 5.447 7.129 7.244 9.732 2.93 4.244 6.768 6.38 6.768 3.768 0-.55 1.035-1 2.3-1s2.746-.446 3.29-.99c.62-.62 2.15-.657 4.088-.101 2.392.686 3.469.516 4.728-.744 4.803-4.802 6.925 3.04 2.546 9.405-3.724 5.412-1.48 4.855 3.795-.941 1.786-1.963 3.851-3.336 4.59-3.052.738.282 1.92-.181 2.625-1.031 1.934-2.33 4.935-1.866 6.224.963 1.583 3.475-.177 6.436-7.813 13.14-6.161 5.409-6.161 5.409-3.267 8.303 4.487 4.487 3.508 7.376-2.936 8.665-2.37.473-3.292.23-3.762-.995-.888-2.314-2.696-2.009-5.448.92-2.037 2.169-2.206 2.834-1.151 4.523 1.864 2.986.028 5.71-3.506 5.2-4.597-.663-9.708 5.273-8.219 9.547.611 1.753 1.63 3.202 2.264 3.219.634.017.361.49-.606 1.054-.967.563-2.166.771-2.665.463-.498-.308-1.136-.096-1.417.471-.28.567-.375.457-.21-.244a1.322 1.322 0 011.594-.969c1.051.249 1.054.018.019-1.229-.82-.989-2.396-1.39-4.419-1.124a91.777 91.777 0 01-6.144.558c-1.65.081-2.437.374-1.75.651.688.279 1.25 1.087 1.25 1.799s.675 1.854 1.5 2.539c5.107 4.238-.167 9.564-11.856 11.977-5.805 1.198-5.851 1.236-5.25 4.241.333 1.668.606 4.11.606 5.428 0 1.565.84 2.78 2.421 3.5 1.427.65 2.204 1.669 1.892 2.481-1.315 3.427.629 6.545 3.665 5.878 3.965-.871 7.62 1.069 5.906 3.134-.684.825-2.082 1.281-3.105 1.013-1.464-.382-1.732-.077-1.254 1.431.545 1.717.081 1.917-4.459 1.917-5.146 0-6.794-1.89-2.64-3.028 2.787-.763 3.151-3.008.595-3.677-1.452-.379-1.789-.821-.999-1.309 1.624-1.003.253-6.985-1.601-6.986-.782 0-1.421-.392-1.421-.872s-1.851-1.168-4.114-1.53c-2.276-.364-4.845-1.556-5.75-2.669-1.563-1.921-1.645-1.764-1.848 3.531-.199 5.212-.072 5.54 2.143 5.54 5.607 0 3.707 7.564-2.136 8.502-2.087.335-5.28 1.263-7.096 2.062-2.486 1.094-3.803 1.183-5.335.363-2.367-1.266-3.36-.663-2.519 1.53.326.849 1.676 1.543 3.001 1.543 3.904 0 5.075 2.286 3.115 6.077-1.665 3.218-1.666 3.218-13.063 2.607-11.398-.611-11.398-.611-11.398 2.418 0 8.621-10.579 8.949-12.836.398-1.025-3.886-7.44-4.574-7.971-.856-.417 2.928-5.229 3.934-5.933 1.241-.544-2.077-1.366-2.361-2.81-.97-.522.504-2.075 1.066-3.45 1.25-1.71.229-2.602 1.053-2.823 2.609-.261 1.844-.83 2.2-3 1.878-1.472-.218-2.582-.851-2.467-1.405.116-.555-.672-1.807-1.75-2.783-1.881-1.703-1.962-1.698-2.002.131-.024 1.048-1.416 3.03-3.095 4.405a540.456 540.456 0 00-5.708 4.749c-4.916 4.164-8.422 2.715-9.677-3.999-.385-2.061-.881-3.749-1.102-3.75-.221 0-3.649.9-7.619 2-14.524 4.025-29-2.533-15.77-7.145 1.657-.578 3.013-1.445 3.013-1.928 0-.483-1.155-.438-2.566.098-2.123.807-3.159.524-6-1.643-3.139-2.394-4.983-5.457-2.279-3.787.716.443.883.275.439-.443-1.049-1.697-4.913.576-4.188 2.464.811 2.113-2.281 2.937-3.707.987-1.831-2.504-6.976.008-6.236 3.044 1.341 5.502-5.446 8.159-7.44 2.914-.95-2.498-5.437-1.816-9.523 1.446-1.865 1.489-6.803 1.559-7.292.104-.259-.768-.013-1.108.549-.761.56.346.996.071.973-.61-.161-4.454.444-5.606 3.52-6.697 3.668-1.3 2.102-3.54-3.25-4.647-1.375-.284-3.306-.954-4.29-1.489-.986-.536-2.157-.749-2.603-.473-.448.276-1.667-.136-2.71-.916-1.793-1.341-1.767-1.385.487-.816 1.773.448 2.26.242 1.896-.8-.268-.771-1.228-1.27-2.134-1.108-.905.161-1.646-.113-1.646-.61 0-1.368-6.697-8.183-8.04-8.184-1.264 0-.447 5.053.968 5.991 1.274.844.882 7.15-.413 6.653-.657-.252-1.123.469-1.084 1.676.084 2.591-2.923 3.446-3.828 1.089-.357-.929.047-2.752.897-4.05 1.424-2.172 1.405-2.362-.227-2.394-.976-.02-2.897-.658-4.27-1.418-1.696-.939-2.884-1.061-3.702-.382-1.603 1.33-5.582.011-4.95-1.641.545-1.42-1.94-5.524-3.343-5.524-1.258 0-10.008-8.116-10.008-9.282 0-.581 1.664-.708 4.125-.314 3.832.613 4.086.511 3.58-1.429-.45-1.717-.294-1.879.874-.91 2.272 1.886 1.639-.557-.69-2.659-1.16-1.048-2.975-3.744-4.033-5.992-1.69-3.592-9.922-9.936-15.158-11.681-3.332-1.111 3.063-11.87 6.517-10.966 1.767.462 1.998.235 1.38-1.356-1.235-3.177-1.163-3.926.35-3.596 2.291.498 6.055-1.977 6.055-3.984 0-1.079.72-1.831 1.755-1.831 2.437 0 4.522-6.525 2.596-8.124-.743-.616-1.35-1.939-1.35-2.939-.001-1.001-.451-2.097-1-2.437-.55-.34-1-1.518-1-2.618 0-1.1-.404-1.752-.895-1.448-.49.303-1.843-1.357-3.005-3.691-1.162-2.334-2.66-5.143-3.328-6.243-.667-1.1-2.239-3.678-3.493-5.729-2.852-4.664-2.888-7.741-.126-10.706 1.922-2.063 1.98-2.41.542-3.215-.887-.497-1.358-1.568-1.045-2.382.387-1.012-.573-1.955-3.043-2.987-1.984-.829-3.645-2.064-3.69-2.744-.242-3.637-1.198-7.557-2.465-10.115-.785-1.582-1.159-3.945-.832-5.25.405-1.611.16-2.392-.764-2.435-.746-.035-.333-.475.918-.977 2.606-1.047 2.206-5.5-.687-7.629-4.752-3.496-5.041-3.891-4.456-6.081.33-1.238 1.379-2.25 2.33-2.25.95 0 2.543-.9 3.538-2 .995-1.1 2.231-2 2.745-2 .514 0 1.779-1.012 2.81-2.25 1.615-1.934 1.883-2.003 1.912-.49.018.968-.867 2.53-1.967 3.472-2.538 2.173-2.518 2.899.1 3.584 1.157.303 1.805 1.029 1.442 1.617-.363.587-.445 1.067-.183 1.067.263 0 1.25.298 2.196.66 1.212.464 1.572.243 1.224-.75-.57-1.629 2.992-7.17 4.15-6.454.427.264 1.613-.132 2.636-.879 2.017-1.475.615-4.576-2.069-4.577-1.332 0-4.101-8.453-3.604-11 .162-.825.239-3.222.17-5.326-.108-3.399.22-3.954 2.949-4.984 2.134-.806 3.024-1.774 2.919-3.175-.26-3.456.036-4.654 1-4.058a1.092 1.092 0 001.502-.347c.313-.507 1.402-.705 2.42-.438 2.56.669 5.59-2.434 4.113-4.214-.807-.972-.795-1.907.043-3.472.63-1.178.9-2.782.6-3.564-.38-.993.2-1.422 1.923-1.422 1.358 0 2.469-.45 2.47-1 0-.55-.437-1-.97-1-.532 0-.71-.675-.393-1.5.33-.861.02-1.5-.73-1.5-1.018 0-1.041-.267-.108-1.2.66-.66 1.2-1.948 1.2-2.862 0-1.277 1.32-1.818 5.684-2.331 3.126-.367 6.276-1.159 7-1.76 1.767-1.466 1.673-3.846-.153-3.847-.894 0-1.243.586-.893 1.5.363.945-.011 1.5-1.011 1.5-1.986 0-1.574-5.786.506-7.103 3.478-2.204-2.762-.68-7.275 1.776-3.573 1.945-5.211 2.374-6.012 1.573-.743-.743-1.913-.79-3.605-.148-4.224 1.606-6.24.29-6.24-4.07 0-4.477 3.34-6.913 15.25-11.124 7.366-2.604 7.512-2.802 5.108-6.871-1.99-3.368-1.188-7.635 1.6-8.52 2.676-.849 9.035.449 9.056 1.848.042 3.128 1.618 3.829 5.793 2.579 4.398-1.318 5.909-3.37 4.09-5.56-.88-1.063-.605-1.805 1.234-3.325 2.036-1.682 2.524-1.753 3.477-.506 1.928 2.52 17.01-1.493 15.954-4.243-.865-2.257 4.422-5.084 5.593-2.991 1.402 2.505 4.122 2.048 7.252-1.219 2.783-2.905 2.783-2.905.625-5.063-3.774-3.773-.756-10.608 4.56-10.325 5.589.297 6.264.495 5.822 1.71-.217.595-.005 1.692.47 2.437 1.046 1.642 5.668-.946 6.598-3.694.309-.914 3.365-3.792 6.79-6.397 3.42-2.6 6.265-4.737 6.328-4.75zm65.339 318.986c.582 0 1.06.45 1.06 1s-.198 1-.441 1-.719-.45-1.059-1c-.34-.55-.141-.999.44-1zm-91.94-7.618c0-.825.45-1.222 1-.882.55.34 1 1.294 1 2.119 0 .824-.45 1.221-1 .881-.55-.34-1-1.293-1-2.118zm85.5-1.382c.275 0 .5.225.5.5s-.225.5-.5.5a.501.501 0 01-.5-.5c0-.275.225-.5.5-.5zm-127.56-8c.582 0 1.06.45 1.06 1s-.198 1-.441 1-.72-.45-1.059-1c-.34-.55-.141-.999.44-1zm-2.94-1c.55 0 1 .45 1 1s-.45 1-1 1-1-.45-1-1 .45-1 1-1zm60 1.107c0-1.644-2.785-1.984-4.653-.57-1.705 1.292-1.597 1.402 1.403 1.431 1.787.018 3.25-.37 3.25-.861zm-45-2.107c.733 0 1.033.3.667.667a.948.948 0 01-1.334 0c-.366-.367-.066-.667.667-.667zm-9.583.079c1.054-.043 1.644.193 1.312.525-.332.332-1.195.368-1.916.079-.798-.319-.56-.556.604-.604zm1.583-3.079c.55 0 1 .45 1 1s-.45 1-1 1-1-.45-1-1 .45-1 1-1zm-8.5-1c.825 0 1.5.661 1.5 1.469 0 .894-.586 1.243-1.5.893-.825-.317-1.5-.978-1.5-1.469 0-.491.675-.893 1.5-.893zm-.5-8c.55 0 1 .198 1 .441s-.45.719-1 1.059c-.55.34-1 .141-1-.441s.45-1.059 1-1.059zm200.5-6c.825 0 1.5.17 1.5.378 0 .207-.675.938-1.5 1.622-1.229 1.02-1.5.951-1.5-.378 0-.892.675-1.622 1.5-1.622zm5-1c.275 0 .5.225.5.5s-.225.5-.5.5a.501.501 0 01-.5-.5c0-.275.225-.5.5-.5zm-1.808-3.641c.54-1.409.707-1.398 1.549.107 1.058 1.89.425 3.064-1.132 2.102-.561-.349-.749-1.342-.417-2.209zm-3.534-.359c0-1.375.227-1.937.504-1.25.278.688.278 1.813 0 2.5-.277.688-.504.125-.504-1.25zm2.342-1c.275 0 .5.225.5.5s-.225.5-.5.5a.501.501 0 01-.5-.5c0-.275.225-.5.5-.5zm-5.844-1.455c-.37-.963-.072-1.257.895-.886 1.68.645 1.794 1.01.554 1.776-.493.305-1.145-.096-1.449-.89zm6.844-.545c.275 0 .5.225.5.5s-.225.5-.5.5a.501.501 0 01-.5-.5c0-.275.225-.5.5-.5zm39.5-3c0-.733.3-1.033.667-.667a.948.948 0 010 1.334c-.367.366-.667.066-.667-.667zm-6-10.441c0-1.757.6-2.015 1.457-.628.317.512.118 1.214-.441 1.56-.559.344-1.016-.075-1.016-.932zM39.241 257.57c-2.373-.911-2.69-.758-2.025.975.334.87.607 1.77.607 2 0 .23.675.418 1.5.418 1.99 0 1.928-2.622-.082-3.393zm255.48-5.607c1.658 0 8.149 6.113 7.54 7.101-1.492 2.413-6.742-.804-7.918-4.851-.379-1.302-.22-2.249.378-2.25zm-20.398 4c-.275 0-.5.225-.5.5s.225.5.5.5.5-.225.5-.5-.225-.5-.5-.5zm-6-3c-.275 0-.5.225-.5.5s.225.5.5.5.5-.225.5-.5-.225-.5-.5-.5zm-1.677-3.667c-.389-2.009-2.386-2.848-3.29-1.385-.88 1.423.242 3.052 2.099 3.052.876 0 1.378-.703 1.191-1.667zm2.677.667c-.275 0-.5.225-.5.5s.225.5.5.5.5-.225.5-.5-.225-.5-.5-.5zm-245-17c.275 0 .5.225.5.5s-.225.5-.5.5a.502.502 0 01-.5-.5c0-.275.225-.5.5-.5zm2 0c.275 0 .5.225.5.5s-.225.5-.5.5a.502.502 0 01-.5-.5c0-.275.225-.5.5-.5zm4-50c-.275 0-.5.225-.5.5s.225.5.5.5.5-.225.5-.5-.225-.5-.5-.5zm-4.5 0c.733 0 1.033.3.667.667a.948.948 0 01-1.334 0c-.366-.367-.066-.667.667-.667zm-1.281-14.918c.165-2.193-1.234-3.676-2.118-2.246-.295.478.026 1.64.713 2.579 1.154 1.578 1.263 1.552 1.405-.333zm1.781-2.082c-.275 0-.5.225-.5.5s.225.5.5.5.5-.225.5-.5-.225-.5-.5-.5zm251.7-11.799c3.351-3.351 7.363-.019 6.367 5.289-.771 4.111-2.856 4.579-5.624 1.26-2.183-2.616-2.436-4.856-.743-6.549zm-277.2 2.799c.733 0 1.033.3.667.667a.948.948 0 01-1.334 0c-.366-.367-.066-.667.667-.667zm286.094-9c.498 0 .906.9.906 2s-.173 1.999-.383 2c-.211 0-.619-.9-.907-2-.287-1.1-.115-2 .384-2zm-1.594-2c.275 0 .5.225.5.5s-.225.5-.5.5a.501.501 0 01-.5-.5c0-.275.225-.5.5-.5zm7.882-3c.275 0 .778.45 1.118 1 .34.55.393 1 .118 1s-.778-.45-1.118-1c-.34-.55-.393-1-.118-1zM18.68 133.08c.195-.064.119.503-.172 1.261-.291.758 0 1.909.643 2.557.9.904.602.968-1.277.276-3.058-1.127-3.74-2.892-1.356-3.51.992-.257 1.965-.52 2.162-.584zm8.81-1.45c1.116-1.117 2-.749 2 .833 0 .825-.6 1.5-1.334 1.5-1.419 0-1.77-1.229-.666-2.333zm266.273.333c.582 0 1.06.45 1.06 1s-.198 1-.441 1-.719-.45-1.059-1c-.34-.55-.141-.999.44-1zm2.56 1c.275 0 .5.225.5.5s-.225.5-.5.5a.501.501 0 01-.5-.5c0-.275.225-.5.5-.5zm-275.5-4c.55 0 1 .675 1 1.5s-.45 1.5-1 1.5-1-.675-1-1.5.45-1.5 1-1.5zm282 .128c3.258-1.305 5-1.362 5-.163 0 1.749-3.891 3.196-5.763 2.142-1.557-.876-1.478-1.081.763-1.979zm-288.434-3.23c3.127-1.225 4.078-.943 2.037.602-1.044.79-2.364 1.148-2.934.795-.598-.369-.218-.96.896-1.397zm276.493-.898c.518 0 .941.45.941 1s-.703 1-1.56 1c-.856 0-1.28-.45-.94-1 .34-.55 1.041-1 1.559-1zm-37.559-20c-.275 0-.5.225-.5.5s.225.5.5.5.5-.225.5-.5-.225-.5-.5-.5zm-215-3c.275 0 .5.225.5.5s-.225.5-.5.5a.502.502 0 01-.5-.5c0-.275.225-.5.5-.5zm5-1c.275 0 .5.225.5.5s-.225.5-.5.5a.502.502 0 01-.5-.5c0-.275.225-.5.5-.5zm-11.25-5.017c1.787-1.093 3.85-1.76 4.582-1.485.732.276 2.082.538 3 .581.999.047 1.176.279.442.576-.673.272-1.452.35-1.73.17-.278-.178-1.215.687-2.081 1.925-1.028 1.467-2.602 2.25-4.52 2.25-3.852 0-3.733-1.546.307-4.017zm228.25 3.017c.275 0 .5.225.5.5s-.225.5-.5.5a.501.501 0 01-.5-.5c0-.275.225-.5.5-.5zm-218-1c.275 0 .5.225.5.5s-.225.5-.5.5a.502.502 0 01-.5-.5c0-.275.225-.5.5-.5zm12.32-8.171c-.347-2.352-2.271-3.527-3.232-1.972-.907 1.468.44 4.143 2.089 4.143.932 0 1.346-.787 1.143-2.171zm184.68-14.829c.275 0 .5.225.5.5s-.225.5-.5.5a.501.501 0 01-.5-.5c0-.275.225-.5.5-.5zm34.5-2.004c0-.513.675-.721 1.5-.464.825.258 2.25.709 3.167 1.001 1.174.376 1.353.846.607 1.592-1.18 1.18-5.273-.473-5.274-2.129zM69.807 71.213c.022-1.797-1.658-1.54-2.39.364-.392 1.023-1.345 1.423-2.606 1.093-1.092-.285-1.987-.16-1.988.278 0 .439 1.195 1.099 2.655 1.466 2.667.668 4.296-.536 4.33-3.2zm174.575-2.25c-.243 0-.719.45-1.059 1-.34.55-.141 1 .44 1 .582 0 1.06-.45 1.06-1s-.198-1-.441-1zm-3.059-1c-.275 0-.5.225-.5.5s.225.5.5.5.5-.225.5-.5-.225-.5-.5-.5zm-97.083-21.92c-1.165.047-1.402.284-.604.603.721.289 1.584.253 1.916-.08.332-.331-.258-.567-1.312-.524zm37.583-2.08c-.733 0-1.033.3-.667.667a.948.948 0 001.334 0c.366-.367.066-.667-.667-.667zm-34.478-9.63c-1.136-.435-1.813.026-2.198 1.5-.307 1.172-1.18 2.13-1.941 2.13-.76 0-1.383.45-1.383 1 0 1.52 2.594 1.195 4-.5.685-.825 2.288-1.5 3.563-1.5 1.275 0 2.597-.45 2.937-1 .34-.55-.272-1-1.359-1-1.088 0-2.717-.283-3.619-.63zm-8.398 2.363c-.988-.98-1.102-.865-.56.56.376.986.935 1.54 1.243 1.233.308-.307.001-1.114-.683-1.793zm21.376-6.733c.275 0 .5.225.5.5s-.225.5-.5.5a.502.502 0 01-.5-.5c0-.275.225-.5.5-.5zm45.5-1c.733 0 1.033.3.667.667a.948.948 0 01-1.334 0c-.366-.367-.066-.667.667-.667zm5-4c.55 0 1 .198 1 .44 0 .244-.45.72-1 1.06-.55.34-1 .14-1-.441 0-.582.45-1.059 1-1.059zm-34.5 0c.275 0 .5.225.5.5s-.225.5-.5.5a.502.502 0 01-.5-.5c0-.275.225-.5.5-.5zm-3.5-6c.733 0 1.033.3.667.667a.948.948 0 01-1.334 0c-.366-.367-.066-.667.667-.667zm1-3c0-.733.3-1.033.667-.667a.948.948 0 010 1.334c-.367.366-.667.066-.667-.667zm35-2c.733 0 1.033.3.667.667a.948.948 0 01-1.334 0c-.366-.367-.066-.667.667-.667zm-31.5-1c.275 0 .5.225.5.5s-.225.5-.5.5a.502.502 0 01-.5-.5c0-.275.225-.5.5-.5zm-11-2c.275 0 .5.225.5.5s-.225.5-.5.5a.502.502 0 01-.5-.5c0-.275.225-.5.5-.5zm9.5 0c0-.733.3-1.033.667-.667a.948.948 0 010 1.334c-.367.366-.667.066-.667-.667zm-4.5-1c.275 0 .5.225.5.5s-.225.5-.5.5a.502.502 0 01-.5-.5c0-.275.225-.5.5-.5zm-38.941-3c.243 0 .441.45.441 1s-.478 1-1.06 1c-.581 0-.78-.45-.44-1s.816-1 1.059-1zm-9.559 1c.733 0 1.033.3.667.667a.948.948 0 01-1.334 0c-.366-.367-.066-.667.667-.667zm44.381-5.652c2.929-2.519 5.619-3.082 5.619-1.177 0 1.726-3.081 4.829-4.795 4.83-.816 0-2.026.74-2.688 1.645-1.062 1.452-1.184 1.375-1.035-.65.093-1.265 1.398-3.356 2.899-4.648z" fill="#ED3F24" id="a" data-figma-scatter-ref="stroke0_19_118_ref" data-figma-scatter="f0.51_w0.06_aj180_sj0.65_r0_s3173664043738980398_sw5"/><path d="M215.823 333.963c0-.733.3-1.033.667-.667a.948.948 0 010 1.334c-.367.366-.667.066-.667-.667zM143.424 3.977c4.632-.653 8.099 4.826 5.302 8.382-1.951 2.48-2.551 5.604-1.078 5.604.905.004 11.175 12.34 11.175 13.423 0 1.076-4.344 5.111-6.316 5.868-1.898.728-1.434 2.71.633 2.71.661 0 1.78.924 2.486 2.056 1.284 2.054 1.286 2.054 2.991.057.938-1.1 2.606-2.139 3.706-2.307 1.1-.169 2.33-.757 2.734-1.307.415-.565.741-.238.75.75.018 2.14.447 2.169 3.408.229 1.623-1.063 2.19-2.212 1.884-3.81-1.049-5.489 4.864-5.512 14.402-.058 5.289 3.024 5.527 3.005 7.663-.61 3.023-5.119 9.966-1.694 8.152 4.02-.515 1.623-.183 2.247 1.417 2.666 1.15.3 2.09.945 2.09 1.43.001.485.9.883 2 .883 2.405 0 2.51-.633.446-2.697-1.937-1.936-1.511-6.247.756-7.667 2.444-1.53 3.085-.336 1.976 3.68-.844 3.056-.725 3.569.927 4 1.042.274 1.895 1.215 1.895 2.09.001 2.117 3.922 2.083 5.479-.046 1.634-2.235 4.962-.366 4.996 2.806.022 2.026.585 2.375 4.275 2.641 3.903.283 4.25.113 4.25-2.089 0-1.598.849-2.783 2.547-3.556 5.794-2.64 9.087-.056 7.912 6.206-.627 3.341-.627 3.341 7.125 4.043 13.323 1.209 21.701 9.211 10.916 10.427-1.65.187-3.533.779-4.183 1.316-.772.639-2.504.61-5-.082-4.664-1.295-5.317-1.318-5.317-.18 0 .89 3.547 2.107 7.692 2.639 3.814.489 4.527 1.472 3.864 5.335-1.584 9.224-1.538 9.134-4.694 9.134-1.732 0-2.721-.419-2.362-1 .34-.55.194-1-.324-1-.519 0-1.178-.9-1.466-2-.316-1.208-1.364-2-2.648-2-1.169 0-2.425-.787-2.793-1.75-.688-1.803-.846-2.03-4.339-6.25-2.069-2.5-2.069-2.5-1.491.21.443 2.079.097 2.968-1.49 3.817-3.053 1.634-2.358 6.6.861 6.15 1.27-.178 2.952.21 3.737.862.841.698 2.53.908 4.115.51 2.465-.619 2.57-.53 1.263 1.08-.904 1.113-.968 1.48-.175 1.004 1.207-.725 1.687.683 1.482 4.336-.045.808 1.226 3.249 2.826 5.425 2.411 3.278 2.808 4.595 2.313 7.686-.499 3.124-.251 3.915 1.528 4.868 1.738.93 1.934 1.496 1.067 3.115-.582 1.088-.743 2.489-.358 3.114 1.359 2.199-6.627-.001-11.342-3.124-8.698-5.762-10.731-2.813-8.924 12.947.221 1.925-.023 4.035-.543 4.69-2.291 2.887-.482 6.804 3.201 6.932 1.925.067 3.95.231 4.5.365.55.134 1.77.166 2.711.072 2.294-.23 5.828 1.736 5.529 3.076-.429 1.92 7.577 1.339 13.716-.996 3.275-1.246 6.763-2.054 7.75-1.795 1.097.287 1.794-.077 1.794-.937 0-.773-.9-1.407-2-1.407-2.468 0-2.532-1.121-.227-3.967 1.774-2.19 1.774-2.191 3.655-.112 3.099 3.423 8.159.85 5.79-2.944-.993-1.589-.581-2.041 3.321-3.645 2.449-1.007 4.455-2.169 4.457-2.582.002-.412.443-.75.979-.75 1.288 0 .183 5.855-1.664 8.817-1.092 1.751-1.167 2.651-.309 3.686 1.283 1.545-.226 5.368-2.692 6.822-.804.474-1.149 1.608-.812 2.669.406 1.279-.025 2.039-1.405 2.477-1.193.378-1.772 1.202-1.445 2.054.599 1.563-1.168 3.716-3.898 4.75-.962.364-1.75 1.619-1.75 2.789 0 2.226-3.33 7.595-5.963 9.615-1.366 1.047-1.342 1.254.215 1.857 1.184.459 2.39-.086 3.717-1.678 2.104-2.526 2.666-1.913 1.038 1.131-.844 1.574-.541 1.954 2 2.512 3.869.85 4.064 4.832.493 10.094-3.324 4.898-3.182 6.036 1.488 11.905 2.188 2.75 5.447 7.129 7.244 9.732 2.93 4.244 6.768 6.38 6.768 3.768 0-.55 1.035-1 2.3-1s2.746-.446 3.29-.99c.62-.62 2.15-.657 4.088-.101 2.392.686 3.469.516 4.728-.744 4.803-4.802 6.925 3.04 2.546 9.405-3.724 5.412-1.48 4.855 3.795-.941 1.786-1.963 3.851-3.336 4.59-3.052.738.282 1.92-.181 2.625-1.031 1.934-2.33 4.935-1.866 6.224.963 1.583 3.475-.177 6.436-7.813 13.14-6.161 5.409-6.161 5.409-3.267 8.303 4.487 4.487 3.508 7.376-2.936 8.665-2.37.473-3.292.23-3.762-.995-.888-2.314-2.696-2.009-5.448.92-2.037 2.169-2.206 2.834-1.151 4.523 1.864 2.986.028 5.71-3.506 5.2-4.597-.663-9.708 5.273-8.219 9.547.611 1.753 1.63 3.202 2.264 3.219.634.017.361.49-.606 1.054-.967.563-2.166.771-2.665.463-.498-.308-1.136-.096-1.417.471-.28.567-.375.457-.21-.244a1.322 1.322 0 011.594-.969c1.051.249 1.054.018.019-1.229-.82-.989-2.396-1.39-4.419-1.124a91.777 91.777 0 01-6.144.558c-1.65.081-2.437.374-1.75.651.688.279 1.25 1.087 1.25 1.799s.675 1.854 1.5 2.539c5.107 4.238-.167 9.564-11.856 11.977-5.805 1.198-5.851 1.236-5.25 4.241.333 1.668.606 4.11.606 5.428 0 1.565.84 2.78 2.421 3.5 1.427.65 2.204 1.669 1.892 2.481-1.315 3.427.629 6.545 3.665 5.878 3.965-.871 7.62 1.069 5.906 3.134-.684.825-2.082 1.281-3.105 1.013-1.464-.382-1.732-.077-1.254 1.431.545 1.717.081 1.917-4.459 1.917-5.146 0-6.794-1.89-2.64-3.028 2.787-.763 3.151-3.008.595-3.677-1.452-.379-1.789-.821-.999-1.309 1.624-1.003.253-6.985-1.601-6.986-.782 0-1.421-.392-1.421-.872s-1.851-1.168-4.114-1.53c-2.276-.364-4.845-1.556-5.75-2.669-1.563-1.921-1.645-1.764-1.848 3.531-.199 5.212-.072 5.54 2.143 5.54 5.607 0 3.707 7.564-2.136 8.502-2.087.335-5.28 1.263-7.096 2.062-2.486 1.094-3.803 1.183-5.335.363-2.367-1.266-3.36-.663-2.519 1.53.326.849 1.676 1.543 3.001 1.543 3.904 0 5.075 2.286 3.115 6.077-1.665 3.218-1.666 3.218-13.063 2.607-11.398-.611-11.398-.611-11.398 2.418 0 8.621-10.579 8.949-12.836.398-1.025-3.886-7.44-4.574-7.971-.856-.417 2.928-5.229 3.934-5.933 1.241-.544-2.077-1.366-2.361-2.81-.97-.522.504-2.075 1.066-3.45 1.25-1.71.229-2.602 1.053-2.823 2.609-.261 1.844-.83 2.2-3 1.878-1.472-.218-2.582-.851-2.467-1.405.116-.555-.672-1.807-1.75-2.783-1.881-1.703-1.962-1.698-2.002.131-.024 1.048-1.416 3.03-3.095 4.405a540.456 540.456 0 00-5.708 4.749c-4.916 4.164-8.422 2.715-9.677-3.999-.385-2.061-.881-3.749-1.102-3.75-.221 0-3.649.9-7.619 2-14.524 4.025-29-2.533-15.77-7.145 1.657-.578 3.013-1.445 3.013-1.928 0-.483-1.155-.438-2.566.098-2.123.807-3.159.524-6-1.643-3.139-2.394-4.983-5.457-2.279-3.787.716.443.883.275.439-.443-1.049-1.697-4.913.576-4.188 2.464.811 2.113-2.281 2.937-3.707.987-1.831-2.504-6.976.008-6.236 3.044 1.341 5.502-5.446 8.159-7.44 2.914-.95-2.498-5.437-1.816-9.523 1.446-1.865 1.489-6.803 1.559-7.292.104-.259-.768-.013-1.108.549-.761.56.346.996.071.973-.61-.161-4.454.444-5.606 3.52-6.697 3.668-1.3 2.102-3.54-3.25-4.647-1.375-.284-3.306-.954-4.29-1.489-.986-.536-2.157-.749-2.603-.473-.448.276-1.667-.136-2.71-.916-1.793-1.341-1.767-1.385.487-.816 1.773.448 2.26.242 1.896-.8-.268-.771-1.228-1.27-2.134-1.108-.905.161-1.646-.113-1.646-.61 0-1.368-6.697-8.183-8.04-8.184-1.264 0-.447 5.053.968 5.991 1.274.844.882 7.15-.413 6.653-.657-.252-1.123.469-1.084 1.676.084 2.591-2.923 3.446-3.828 1.089-.357-.929.047-2.752.897-4.05 1.424-2.172 1.405-2.362-.227-2.394-.976-.02-2.897-.658-4.27-1.418-1.696-.939-2.884-1.061-3.702-.382-1.603 1.33-5.582.011-4.95-1.641.545-1.42-1.94-5.524-3.343-5.524-1.258 0-10.008-8.116-10.008-9.282 0-.581 1.664-.708 4.125-.314 3.832.613 4.086.511 3.58-1.429-.45-1.717-.294-1.879.874-.91 2.272 1.886 1.639-.557-.69-2.659-1.16-1.048-2.975-3.744-4.033-5.992-1.69-3.592-9.922-9.936-15.158-11.681-3.332-1.111 3.063-11.87 6.517-10.966 1.767.462 1.998.235 1.38-1.356-1.235-3.177-1.163-3.926.35-3.596 2.291.498 6.055-1.977 6.055-3.984 0-1.079.72-1.831 1.755-1.831 2.437 0 4.522-6.525 2.596-8.124-.743-.616-1.35-1.939-1.35-2.939-.001-1.001-.451-2.097-1-2.437-.55-.34-1-1.518-1-2.618 0-1.1-.404-1.752-.895-1.448-.49.303-1.843-1.357-3.005-3.691-1.162-2.334-2.66-5.143-3.328-6.243-.667-1.1-2.239-3.678-3.493-5.729-2.852-4.664-2.888-7.741-.126-10.706 1.922-2.063 1.98-2.41.542-3.215-.887-.497-1.358-1.568-1.045-2.382.387-1.012-.573-1.955-3.043-2.987-1.984-.829-3.645-2.064-3.69-2.744-.242-3.637-1.198-7.557-2.465-10.115-.785-1.582-1.159-3.945-.832-5.25.405-1.611.16-2.392-.764-2.435-.746-.035-.333-.475.918-.977 2.606-1.047 2.206-5.5-.687-7.629-4.752-3.496-5.041-3.891-4.456-6.081.33-1.238 1.379-2.25 2.33-2.25.95 0 2.543-.9 3.538-2 .995-1.1 2.231-2 2.745-2 .514 0 1.779-1.012 2.81-2.25 1.615-1.934 1.883-2.003 1.912-.49.018.968-.867 2.53-1.967 3.472-2.538 2.173-2.518 2.899.1 3.584 1.157.303 1.805 1.029 1.442 1.617-.363.587-.445 1.067-.183 1.067.263 0 1.25.298 2.196.66 1.212.464 1.572.243 1.224-.75-.57-1.629 2.992-7.17 4.15-6.454.427.264 1.613-.132 2.636-.879 2.017-1.475.615-4.576-2.069-4.577-1.332 0-4.101-8.453-3.604-11 .162-.825.239-3.222.17-5.326-.108-3.399.22-3.954 2.949-4.984 2.134-.806 3.024-1.774 2.919-3.175-.26-3.456.036-4.654 1-4.058a1.092 1.092 0 001.502-.347c.313-.507 1.402-.705 2.42-.438 2.56.669 5.59-2.434 4.113-4.214-.807-.972-.795-1.907.043-3.472.63-1.178.9-2.782.6-3.564-.38-.993.2-1.422 1.923-1.422 1.358 0 2.469-.45 2.47-1 0-.55-.437-1-.97-1-.532 0-.71-.675-.393-1.5.33-.861.02-1.5-.73-1.5-1.018 0-1.041-.267-.108-1.2.66-.66 1.2-1.948 1.2-2.862 0-1.277 1.32-1.818 5.684-2.331 3.126-.367 6.276-1.159 7-1.76 1.767-1.466 1.673-3.846-.153-3.847-.894 0-1.243.586-.893 1.5.363.945-.011 1.5-1.011 1.5-1.986 0-1.574-5.786.506-7.103 3.478-2.204-2.762-.68-7.275 1.776-3.573 1.945-5.211 2.374-6.012 1.573-.743-.743-1.913-.79-3.605-.148-4.224 1.606-6.24.29-6.24-4.07 0-4.477 3.34-6.913 15.25-11.124 7.366-2.604 7.512-2.802 5.108-6.871-1.99-3.368-1.188-7.635 1.6-8.52 2.676-.849 9.035.449 9.056 1.848.042 3.128 1.618 3.829 5.793 2.579 4.398-1.318 5.909-3.37 4.09-5.56-.88-1.063-.605-1.805 1.234-3.325 2.036-1.682 2.524-1.753 3.477-.506 1.928 2.52 17.01-1.493 15.954-4.243-.865-2.257 4.422-5.084 5.593-2.991 1.402 2.505 4.122 2.048 7.252-1.219 2.783-2.905 2.783-2.905.625-5.063-3.774-3.773-.756-10.608 4.56-10.325 5.589.297 6.264.495 5.822 1.71-.217.595-.005 1.692.47 2.437 1.046 1.642 5.668-.946 6.598-3.694.309-.914 3.365-3.792 6.79-6.397 3.42-2.6 6.265-4.737 6.328-4.75zm65.339 318.986c.582 0 1.06.45 1.06 1s-.198 1-.441 1-.719-.45-1.059-1c-.34-.55-.141-.999.44-1zm-91.94-7.618c0-.825.45-1.222 1-.882.55.34 1 1.294 1 2.119 0 .824-.45 1.221-1 .881-.55-.34-1-1.293-1-2.118zm85.5-1.382c.275 0 .5.225.5.5s-.225.5-.5.5a.501.501 0 01-.5-.5c0-.275.225-.5.5-.5zm-127.56-8c.582 0 1.06.45 1.06 1s-.198 1-.441 1-.72-.45-1.059-1c-.34-.55-.141-.999.44-1zm-2.94-1c.55 0 1 .45 1 1s-.45 1-1 1-1-.45-1-1 .45-1 1-1zm60 1.107c0-1.644-2.785-1.984-4.653-.57-1.705 1.292-1.597 1.402 1.403 1.431 1.787.018 3.25-.37 3.25-.861zm-45-2.107c.733 0 1.033.3.667.667a.948.948 0 01-1.334 0c-.366-.367-.066-.667.667-.667zm-9.583.079c1.054-.043 1.644.193 1.312.525-.332.332-1.195.368-1.916.079-.798-.319-.56-.556.604-.604zm1.583-3.079c.55 0 1 .45 1 1s-.45 1-1 1-1-.45-1-1 .45-1 1-1zm-8.5-1c.825 0 1.5.661 1.5 1.469 0 .894-.586 1.243-1.5.893-.825-.317-1.5-.978-1.5-1.469 0-.491.675-.893 1.5-.893zm-.5-8c.55 0 1 .198 1 .441s-.45.719-1 1.059c-.55.34-1 .141-1-.441s.45-1.059 1-1.059zm200.5-6c.825 0 1.5.17 1.5.378 0 .207-.675.938-1.5 1.622-1.229 1.02-1.5.951-1.5-.378 0-.892.675-1.622 1.5-1.622zm5-1c.275 0 .5.225.5.5s-.225.5-.5.5a.501.501 0 01-.5-.5c0-.275.225-.5.5-.5zm-1.808-3.641c.54-1.409.707-1.398 1.549.107 1.058 1.89.425 3.064-1.132 2.102-.561-.349-.749-1.342-.417-2.209zm-3.534-.359c0-1.375.227-1.937.504-1.25.278.688.278 1.813 0 2.5-.277.688-.504.125-.504-1.25zm2.342-1c.275 0 .5.225.5.5s-.225.5-.5.5a.501.501 0 01-.5-.5c0-.275.225-.5.5-.5zm-5.844-1.455c-.37-.963-.072-1.257.895-.886 1.68.645 1.794 1.01.554 1.776-.493.305-1.145-.096-1.449-.89zm6.844-.545c.275 0 .5.225.5.5s-.225.5-.5.5a.501.501 0 01-.5-.5c0-.275.225-.5.5-.5zm39.5-3c0-.733.3-1.033.667-.667a.948.948 0 010 1.334c-.367.366-.667.066-.667-.667zm-6-10.441c0-1.757.6-2.015 1.457-.628.317.512.118 1.214-.441 1.56-.559.344-1.016-.075-1.016-.932zM39.241 257.57c-2.373-.911-2.69-.758-2.025.975.334.87.607 1.77.607 2 0 .23.675.418 1.5.418 1.99 0 1.928-2.622-.082-3.393zm255.48-5.607c1.658 0 8.149 6.113 7.54 7.101-1.492 2.413-6.742-.804-7.918-4.851-.379-1.302-.22-2.249.378-2.25zm-20.398 4c-.275 0-.5.225-.5.5s.225.5.5.5.5-.225.5-.5-.225-.5-.5-.5zm-6-3c-.275 0-.5.225-.5.5s.225.5.5.5.5-.225.5-.5-.225-.5-.5-.5zm-1.677-3.667c-.389-2.009-2.386-2.848-3.29-1.385-.88 1.423.242 3.052 2.099 3.052.876 0 1.378-.703 1.191-1.667zm2.677.667c-.275 0-.5.225-.5.5s.225.5.5.5.5-.225.5-.5-.225-.5-.5-.5zm-245-17c.275 0 .5.225.5.5s-.225.5-.5.5a.502.502 0 01-.5-.5c0-.275.225-.5.5-.5zm2 0c.275 0 .5.225.5.5s-.225.5-.5.5a.502.502 0 01-.5-.5c0-.275.225-.5.5-.5zm4-50c-.275 0-.5.225-.5.5s.225.5.5.5.5-.225.5-.5-.225-.5-.5-.5zm-4.5 0c.733 0 1.033.3.667.667a.948.948 0 01-1.334 0c-.366-.367-.066-.667.667-.667zm-1.281-14.918c.165-2.193-1.234-3.676-2.118-2.246-.295.478.026 1.64.713 2.579 1.154 1.578 1.263 1.552 1.405-.333zm1.781-2.082c-.275 0-.5.225-.5.5s.225.5.5.5.5-.225.5-.5-.225-.5-.5-.5zm251.7-11.799c3.351-3.351 7.363-.019 6.367 5.289-.771 4.111-2.856 4.579-5.624 1.26-2.183-2.616-2.436-4.856-.743-6.549zm-277.2 2.799c.733 0 1.033.3.667.667a.948.948 0 01-1.334 0c-.366-.367-.066-.667.667-.667zm286.094-9c.498 0 .906.9.906 2s-.173 1.999-.383 2c-.211 0-.619-.9-.907-2-.287-1.1-.115-2 .384-2zm-1.594-2c.275 0 .5.225.5.5s-.225.5-.5.5a.501.501 0 01-.5-.5c0-.275.225-.5.5-.5zm7.882-3c.275 0 .778.45 1.118 1 .34.55.393 1 .118 1s-.778-.45-1.118-1c-.34-.55-.393-1-.118-1zM18.68 133.08c.195-.064.119.503-.172 1.261-.291.758 0 1.909.643 2.557.9.904.602.968-1.277.276-3.058-1.127-3.74-2.892-1.356-3.51.992-.257 1.965-.52 2.162-.584zm8.81-1.45c1.116-1.117 2-.749 2 .833 0 .825-.6 1.5-1.334 1.5-1.419 0-1.77-1.229-.666-2.333zm266.273.333c.582 0 1.06.45 1.06 1s-.198 1-.441 1-.719-.45-1.059-1c-.34-.55-.141-.999.44-1zm2.56 1c.275 0 .5.225.5.5s-.225.5-.5.5a.501.501 0 01-.5-.5c0-.275.225-.5.5-.5zm-275.5-4c.55 0 1 .675 1 1.5s-.45 1.5-1 1.5-1-.675-1-1.5.45-1.5 1-1.5zm282 .128c3.258-1.305 5-1.362 5-.163 0 1.749-3.891 3.196-5.763 2.142-1.557-.876-1.478-1.081.763-1.979zm-288.434-3.23c3.127-1.225 4.078-.943 2.037.602-1.044.79-2.364 1.148-2.934.795-.598-.369-.218-.96.896-1.397zm276.493-.898c.518 0 .941.45.941 1s-.703 1-1.56 1c-.856 0-1.28-.45-.94-1 .34-.55 1.041-1 1.559-1zm-37.559-20c-.275 0-.5.225-.5.5s.225.5.5.5.5-.225.5-.5-.225-.5-.5-.5zm-215-3c.275 0 .5.225.5.5s-.225.5-.5.5a.502.502 0 01-.5-.5c0-.275.225-.5.5-.5zm5-1c.275 0 .5.225.5.5s-.225.5-.5.5a.502.502 0 01-.5-.5c0-.275.225-.5.5-.5zm-11.25-5.017c1.787-1.093 3.85-1.76 4.582-1.485.732.276 2.082.538 3 .581.999.047 1.176.279.442.576-.673.272-1.452.35-1.73.17-.278-.178-1.215.687-2.081 1.925-1.028 1.467-2.602 2.25-4.52 2.25-3.852 0-3.733-1.546.307-4.017zm228.25 3.017c.275 0 .5.225.5.5s-.225.5-.5.5a.501.501 0 01-.5-.5c0-.275.225-.5.5-.5zm-218-1c.275 0 .5.225.5.5s-.225.5-.5.5a.502.502 0 01-.5-.5c0-.275.225-.5.5-.5zm12.32-8.171c-.347-2.352-2.271-3.527-3.232-1.972-.907 1.468.44 4.143 2.089 4.143.932 0 1.346-.787 1.143-2.171zm184.68-14.829c.275 0 .5.225.5.5s-.225.5-.5.5a.501.501 0 01-.5-.5c0-.275.225-.5.5-.5zm34.5-2.004c0-.513.675-.721 1.5-.464.825.258 2.25.709 3.167 1.001 1.174.376 1.353.846.607 1.592-1.18 1.18-5.273-.473-5.274-2.129zM69.807 71.213c.022-1.797-1.658-1.54-2.39.364-.392 1.023-1.345 1.423-2.606 1.093-1.092-.285-1.987-.16-1.988.278 0 .439 1.195 1.099 2.655 1.466 2.667.668 4.296-.536 4.33-3.2zm174.575-2.25c-.243 0-.719.45-1.059 1-.34.55-.141 1 .44 1 .582 0 1.06-.45 1.06-1s-.198-1-.441-1zm-3.059-1c-.275 0-.5.225-.5.5s.225.5.5.5.5-.225.5-.5-.225-.5-.5-.5zm-97.083-21.92c-1.165.047-1.402.284-.604.603.721.289 1.584.253 1.916-.08.332-.331-.258-.567-1.312-.524zm37.583-2.08c-.733 0-1.033.3-.667.667a.948.948 0 001.334 0c.366-.367.066-.667-.667-.667zm-34.478-9.63c-1.136-.435-1.813.026-2.198 1.5-.307 1.172-1.18 2.13-1.941 2.13-.76 0-1.383.45-1.383 1 0 1.52 2.594 1.195 4-.5.685-.825 2.288-1.5 3.563-1.5 1.275 0 2.597-.45 2.937-1 .34-.55-.272-1-1.359-1-1.088 0-2.717-.283-3.619-.63zm-8.398 2.363c-.988-.98-1.102-.865-.56.56.376.986.935 1.54 1.243 1.233.308-.307.001-1.114-.683-1.793zm21.376-6.733c.275 0 .5.225.5.5s-.225.5-.5.5a.502.502 0 01-.5-.5c0-.275.225-.5.5-.5zm45.5-1c.733 0 1.033.3.667.667a.948.948 0 01-1.334 0c-.366-.367-.066-.667.667-.667zm5-4c.55 0 1 .198 1 .44 0 .244-.45.72-1 1.06-.55.34-1 .14-1-.441 0-.582.45-1.059 1-1.059zm-34.5 0c.275 0 .5.225.5.5s-.225.5-.5.5a.502.502 0 01-.5-.5c0-.275.225-.5.5-.5zm-3.5-6c.733 0 1.033.3.667.667a.948.948 0 01-1.334 0c-.366-.367-.066-.667.667-.667zm1-3c0-.733.3-1.033.667-.667a.948.948 0 010 1.334c-.367.366-.667.066-.667-.667zm35-2c.733 0 1.033.3.667.667a.948.948 0 01-1.334 0c-.366-.367-.066-.667.667-.667zm-31.5-1c.275 0 .5.225.5.5s-.225.5-.5.5a.502.502 0 01-.5-.5c0-.275.225-.5.5-.5zm-11-2c.275 0 .5.225.5.5s-.225.5-.5.5a.502.502 0 01-.5-.5c0-.275.225-.5.5-.5zm9.5 0c0-.733.3-1.033.667-.667a.948.948 0 010 1.334c-.367.366-.667.066-.667-.667zm-4.5-1c.275 0 .5.225.5.5s-.225.5-.5.5a.502.502 0 01-.5-.5c0-.275.225-.5.5-.5zm-38.941-3c.243 0 .441.45.441 1s-.478 1-1.06 1c-.581 0-.78-.45-.44-1s.816-1 1.059-1zm-9.559 1c.733 0 1.033.3.667.667a.948.948 0 01-1.334 0c-.366-.367-.066-.667.667-.667zm44.381-5.652c2.929-2.519 5.619-3.082 5.619-1.177 0 1.726-3.081 4.829-4.795 4.83-.816 0-2.026.74-2.688 1.645-1.062 1.452-1.184 1.375-1.035-.65.093-1.265 1.398-3.356 2.899-4.648z" fill="#FED506" id="b" data-figma-scatter-ref="stroke1_19_118_ref" data-figma-scatter="f0.51_w0.06_aj180_sj0.65_r0_s3173664043738980398_sw5"/><path d="M215.823 333.963c0-.733.3-1.033.667-.667a.948.948 0 010 1.334c-.367.366-.667.066-.667-.667zM143.424 3.977c4.632-.653 8.099 4.826 5.302 8.382-1.951 2.48-2.551 5.604-1.078 5.604.905.004 11.175 12.34 11.175 13.423 0 1.076-4.344 5.111-6.316 5.868-1.898.728-1.434 2.71.633 2.71.661 0 1.78.924 2.486 2.056 1.284 2.054 1.286 2.054 2.991.057.938-1.1 2.606-2.139 3.706-2.307 1.1-.169 2.33-.757 2.734-1.307.415-.565.741-.238.75.75.018 2.14.447 2.169 3.408.229 1.623-1.063 2.19-2.212 1.884-3.81-1.049-5.489 4.864-5.512 14.402-.058 5.289 3.024 5.527 3.005 7.663-.61 3.023-5.119 9.966-1.694 8.152 4.02-.515 1.623-.183 2.247 1.417 2.666 1.15.3 2.09.945 2.09 1.43.001.485.9.883 2 .883 2.405 0 2.51-.633.446-2.697-1.937-1.936-1.511-6.247.756-7.667 2.444-1.53 3.085-.336 1.976 3.68-.844 3.056-.725 3.569.927 4 1.042.274 1.895 1.215 1.895 2.09.001 2.117 3.922 2.083 5.479-.046 1.634-2.235 4.962-.366 4.996 2.806.022 2.026.585 2.375 4.275 2.641 3.903.283 4.25.113 4.25-2.089 0-1.598.849-2.783 2.547-3.556 5.794-2.64 9.087-.056 7.912 6.206-.627 3.341-.627 3.341 7.125 4.043 13.323 1.209 21.701 9.211 10.916 10.427-1.65.187-3.533.779-4.183 1.316-.772.639-2.504.61-5-.082-4.664-1.295-5.317-1.318-5.317-.18 0 .89 3.547 2.107 7.692 2.639 3.814.489 4.527 1.472 3.864 5.335-1.584 9.224-1.538 9.134-4.694 9.134-1.732 0-2.721-.419-2.362-1 .34-.55.194-1-.324-1-.519 0-1.178-.9-1.466-2-.316-1.208-1.364-2-2.648-2-1.169 0-2.425-.787-2.793-1.75-.688-1.803-.846-2.03-4.339-6.25-2.069-2.5-2.069-2.5-1.491.21.443 2.079.097 2.968-1.49 3.817-3.053 1.634-2.358 6.6.861 6.15 1.27-.178 2.952.21 3.737.862.841.698 2.53.908 4.115.51 2.465-.619 2.57-.53 1.263 1.08-.904 1.113-.968 1.48-.175 1.004 1.207-.725 1.687.683 1.482 4.336-.045.808 1.226 3.249 2.826 5.425 2.411 3.278 2.808 4.595 2.313 7.686-.499 3.124-.251 3.915 1.528 4.868 1.738.93 1.934 1.496 1.067 3.115-.582 1.088-.743 2.489-.358 3.114 1.359 2.199-6.627-.001-11.342-3.124-8.698-5.762-10.731-2.813-8.924 12.947.221 1.925-.023 4.035-.543 4.69-2.291 2.887-.482 6.804 3.201 6.932 1.925.067 3.95.231 4.5.365.55.134 1.77.166 2.711.072 2.294-.23 5.828 1.736 5.529 3.076-.429 1.92 7.577 1.339 13.716-.996 3.275-1.246 6.763-2.054 7.75-1.795 1.097.287 1.794-.077 1.794-.937 0-.773-.9-1.407-2-1.407-2.468 0-2.532-1.121-.227-3.967 1.774-2.19 1.774-2.191 3.655-.112 3.099 3.423 8.159.85 5.79-2.944-.993-1.589-.581-2.041 3.321-3.645 2.449-1.007 4.455-2.169 4.457-2.582.002-.412.443-.75.979-.75 1.288 0 .183 5.855-1.664 8.817-1.092 1.751-1.167 2.651-.309 3.686 1.283 1.545-.226 5.368-2.692 6.822-.804.474-1.149 1.608-.812 2.669.406 1.279-.025 2.039-1.405 2.477-1.193.378-1.772 1.202-1.445 2.054.599 1.563-1.168 3.716-3.898 4.75-.962.364-1.75 1.619-1.75 2.789 0 2.226-3.33 7.595-5.963 9.615-1.366 1.047-1.342 1.254.215 1.857 1.184.459 2.39-.086 3.717-1.678 2.104-2.526 2.666-1.913 1.038 1.131-.844 1.574-.541 1.954 2 2.512 3.869.85 4.064 4.832.493 10.094-3.324 4.898-3.182 6.036 1.488 11.905 2.188 2.75 5.447 7.129 7.244 9.732 2.93 4.244 6.768 6.38 6.768 3.768 0-.55 1.035-1 2.3-1s2.746-.446 3.29-.99c.62-.62 2.15-.657 4.088-.101 2.392.686 3.469.516 4.728-.744 4.803-4.802 6.925 3.04 2.546 9.405-3.724 5.412-1.48 4.855 3.795-.941 1.786-1.963 3.851-3.336 4.59-3.052.738.282 1.92-.181 2.625-1.031 1.934-2.33 4.935-1.866 6.224.963 1.583 3.475-.177 6.436-7.813 13.14-6.161 5.409-6.161 5.409-3.267 8.303 4.487 4.487 3.508 7.376-2.936 8.665-2.37.473-3.292.23-3.762-.995-.888-2.314-2.696-2.009-5.448.92-2.037 2.169-2.206 2.834-1.151 4.523 1.864 2.986.028 5.71-3.506 5.2-4.597-.663-9.708 5.273-8.219 9.547.611 1.753 1.63 3.202 2.264 3.219.634.017.361.49-.606 1.054-.967.563-2.166.771-2.665.463-.498-.308-1.136-.096-1.417.471-.28.567-.375.457-.21-.244a1.322 1.322 0 011.594-.969c1.051.249 1.054.018.019-1.229-.82-.989-2.396-1.39-4.419-1.124a91.777 91.777 0 01-6.144.558c-1.65.081-2.437.374-1.75.651.688.279 1.25 1.087 1.25 1.799s.675 1.854 1.5 2.539c5.107 4.238-.167 9.564-11.856 11.977-5.805 1.198-5.851 1.236-5.25 4.241.333 1.668.606 4.11.606 5.428 0 1.565.84 2.78 2.421 3.5 1.427.65 2.204 1.669 1.892 2.481-1.315 3.427.629 6.545 3.665 5.878 3.965-.871 7.62 1.069 5.906 3.134-.684.825-2.082 1.281-3.105 1.013-1.464-.382-1.732-.077-1.254 1.431.545 1.717.081 1.917-4.459 1.917-5.146 0-6.794-1.89-2.64-3.028 2.787-.763 3.151-3.008.595-3.677-1.452-.379-1.789-.821-.999-1.309 1.624-1.003.253-6.985-1.601-6.986-.782 0-1.421-.392-1.421-.872s-1.851-1.168-4.114-1.53c-2.276-.364-4.845-1.556-5.75-2.669-1.563-1.921-1.645-1.764-1.848 3.531-.199 5.212-.072 5.54 2.143 5.54 5.607 0 3.707 7.564-2.136 8.502-2.087.335-5.28 1.263-7.096 2.062-2.486 1.094-3.803 1.183-5.335.363-2.367-1.266-3.36-.663-2.519 1.53.326.849 1.676 1.543 3.001 1.543 3.904 0 5.075 2.286 3.115 6.077-1.665 3.218-1.666 3.218-13.063 2.607-11.398-.611-11.398-.611-11.398 2.418 0 8.621-10.579 8.949-12.836.398-1.025-3.886-7.44-4.574-7.971-.856-.417 2.928-5.229 3.934-5.933 1.241-.544-2.077-1.366-2.361-2.81-.97-.522.504-2.075 1.066-3.45 1.25-1.71.229-2.602 1.053-2.823 2.609-.261 1.844-.83 2.2-3 1.878-1.472-.218-2.582-.851-2.467-1.405.116-.555-.672-1.807-1.75-2.783-1.881-1.703-1.962-1.698-2.002.131-.024 1.048-1.416 3.03-3.095 4.405a540.456 540.456 0 00-5.708 4.749c-4.916 4.164-8.422 2.715-9.677-3.999-.385-2.061-.881-3.749-1.102-3.75-.221 0-3.649.9-7.619 2-14.524 4.025-29-2.533-15.77-7.145 1.657-.578 3.013-1.445 3.013-1.928 0-.483-1.155-.438-2.566.098-2.123.807-3.159.524-6-1.643-3.139-2.394-4.983-5.457-2.279-3.787.716.443.883.275.439-.443-1.049-1.697-4.913.576-4.188 2.464.811 2.113-2.281 2.937-3.707.987-1.831-2.504-6.976.008-6.236 3.044 1.341 5.502-5.446 8.159-7.44 2.914-.95-2.498-5.437-1.816-9.523 1.446-1.865 1.489-6.803 1.559-7.292.104-.259-.768-.013-1.108.549-.761.56.346.996.071.973-.61-.161-4.454.444-5.606 3.52-6.697 3.668-1.3 2.102-3.54-3.25-4.647-1.375-.284-3.306-.954-4.29-1.489-.986-.536-2.157-.749-2.603-.473-.448.276-1.667-.136-2.71-.916-1.793-1.341-1.767-1.385.487-.816 1.773.448 2.26.242 1.896-.8-.268-.771-1.228-1.27-2.134-1.108-.905.161-1.646-.113-1.646-.61 0-1.368-6.697-8.183-8.04-8.184-1.264 0-.447 5.053.968 5.991 1.274.844.882 7.15-.413 6.653-.657-.252-1.123.469-1.084 1.676.084 2.591-2.923 3.446-3.828 1.089-.357-.929.047-2.752.897-4.05 1.424-2.172 1.405-2.362-.227-2.394-.976-.02-2.897-.658-4.27-1.418-1.696-.939-2.884-1.061-3.702-.382-1.603 1.33-5.582.011-4.95-1.641.545-1.42-1.94-5.524-3.343-5.524-1.258 0-10.008-8.116-10.008-9.282 0-.581 1.664-.708 4.125-.314 3.832.613 4.086.511 3.58-1.429-.45-1.717-.294-1.879.874-.91 2.272 1.886 1.639-.557-.69-2.659-1.16-1.048-2.975-3.744-4.033-5.992-1.69-3.592-9.922-9.936-15.158-11.681-3.332-1.111 3.063-11.87 6.517-10.966 1.767.462 1.998.235 1.38-1.356-1.235-3.177-1.163-3.926.35-3.596 2.291.498 6.055-1.977 6.055-3.984 0-1.079.72-1.831 1.755-1.831 2.437 0 4.522-6.525 2.596-8.124-.743-.616-1.35-1.939-1.35-2.939-.001-1.001-.451-2.097-1-2.437-.55-.34-1-1.518-1-2.618 0-1.1-.404-1.752-.895-1.448-.49.303-1.843-1.357-3.005-3.691-1.162-2.334-2.66-5.143-3.328-6.243-.667-1.1-2.239-3.678-3.493-5.729-2.852-4.664-2.888-7.741-.126-10.706 1.922-2.063 1.98-2.41.542-3.215-.887-.497-1.358-1.568-1.045-2.382.387-1.012-.573-1.955-3.043-2.987-1.984-.829-3.645-2.064-3.69-2.744-.242-3.637-1.198-7.557-2.465-10.115-.785-1.582-1.159-3.945-.832-5.25.405-1.611.16-2.392-.764-2.435-.746-.035-.333-.475.918-.977 2.606-1.047 2.206-5.5-.687-7.629-4.752-3.496-5.041-3.891-4.456-6.081.33-1.238 1.379-2.25 2.33-2.25.95 0 2.543-.9 3.538-2 .995-1.1 2.231-2 2.745-2 .514 0 1.779-1.012 2.81-2.25 1.615-1.934 1.883-2.003 1.912-.49.018.968-.867 2.53-1.967 3.472-2.538 2.173-2.518 2.899.1 3.584 1.157.303 1.805 1.029 1.442 1.617-.363.587-.445 1.067-.183 1.067.263 0 1.25.298 2.196.66 1.212.464 1.572.243 1.224-.75-.57-1.629 2.992-7.17 4.15-6.454.427.264 1.613-.132 2.636-.879 2.017-1.475.615-4.576-2.069-4.577-1.332 0-4.101-8.453-3.604-11 .162-.825.239-3.222.17-5.326-.108-3.399.22-3.954 2.949-4.984 2.134-.806 3.024-1.774 2.919-3.175-.26-3.456.036-4.654 1-4.058a1.092 1.092 0 001.502-.347c.313-.507 1.402-.705 2.42-.438 2.56.669 5.59-2.434 4.113-4.214-.807-.972-.795-1.907.043-3.472.63-1.178.9-2.782.6-3.564-.38-.993.2-1.422 1.923-1.422 1.358 0 2.469-.45 2.47-1 0-.55-.437-1-.97-1-.532 0-.71-.675-.393-1.5.33-.861.02-1.5-.73-1.5-1.018 0-1.041-.267-.108-1.2.66-.66 1.2-1.948 1.2-2.862 0-1.277 1.32-1.818 5.684-2.331 3.126-.367 6.276-1.159 7-1.76 1.767-1.466 1.673-3.846-.153-3.847-.894 0-1.243.586-.893 1.5.363.945-.011 1.5-1.011 1.5-1.986 0-1.574-5.786.506-7.103 3.478-2.204-2.762-.68-7.275 1.776-3.573 1.945-5.211 2.374-6.012 1.573-.743-.743-1.913-.79-3.605-.148-4.224 1.606-6.24.29-6.24-4.07 0-4.477 3.34-6.913 15.25-11.124 7.366-2.604 7.512-2.802 5.108-6.871-1.99-3.368-1.188-7.635 1.6-8.52 2.676-.849 9.035.449 9.056 1.848.042 3.128 1.618 3.829 5.793 2.579 4.398-1.318 5.909-3.37 4.09-5.56-.88-1.063-.605-1.805 1.234-3.325 2.036-1.682 2.524-1.753 3.477-.506 1.928 2.52 17.01-1.493 15.954-4.243-.865-2.257 4.422-5.084 5.593-2.991 1.402 2.505 4.122 2.048 7.252-1.219 2.783-2.905 2.783-2.905.625-5.063-3.774-3.773-.756-10.608 4.56-10.325 5.589.297 6.264.495 5.822 1.71-.217.595-.005 1.692.47 2.437 1.046 1.642 5.668-.946 6.598-3.694.309-.914 3.365-3.792 6.79-6.397 3.42-2.6 6.265-4.737 6.328-4.75zm65.339 318.986c.582 0 1.06.45 1.06 1s-.198 1-.441 1-.719-.45-1.059-1c-.34-.55-.141-.999.44-1zm-91.94-7.618c0-.825.45-1.222 1-.882.55.34 1 1.294 1 2.119 0 .824-.45 1.221-1 .881-.55-.34-1-1.293-1-2.118zm85.5-1.382c.275 0 .5.225.5.5s-.225.5-.5.5a.501.501 0 01-.5-.5c0-.275.225-.5.5-.5zm-127.56-8c.582 0 1.06.45 1.06 1s-.198 1-.441 1-.72-.45-1.059-1c-.34-.55-.141-.999.44-1zm-2.94-1c.55 0 1 .45 1 1s-.45 1-1 1-1-.45-1-1 .45-1 1-1zm60 1.107c0-1.644-2.785-1.984-4.653-.57-1.705 1.292-1.597 1.402 1.403 1.431 1.787.018 3.25-.37 3.25-.861zm-45-2.107c.733 0 1.033.3.667.667a.948.948 0 01-1.334 0c-.366-.367-.066-.667.667-.667zm-9.583.079c1.054-.043 1.644.193 1.312.525-.332.332-1.195.368-1.916.079-.798-.319-.56-.556.604-.604zm1.583-3.079c.55 0 1 .45 1 1s-.45 1-1 1-1-.45-1-1 .45-1 1-1zm-8.5-1c.825 0 1.5.661 1.5 1.469 0 .894-.586 1.243-1.5.893-.825-.317-1.5-.978-1.5-1.469 0-.491.675-.893 1.5-.893zm-.5-8c.55 0 1 .198 1 .441s-.45.719-1 1.059c-.55.34-1 .141-1-.441s.45-1.059 1-1.059zm200.5-6c.825 0 1.5.17 1.5.378 0 .207-.675.938-1.5 1.622-1.229 1.02-1.5.951-1.5-.378 0-.892.675-1.622 1.5-1.622zm5-1c.275 0 .5.225.5.5s-.225.5-.5.5a.501.501 0 01-.5-.5c0-.275.225-.5.5-.5zm-1.808-3.641c.54-1.409.707-1.398 1.549.107 1.058 1.89.425 3.064-1.132 2.102-.561-.349-.749-1.342-.417-2.209zm-3.534-.359c0-1.375.227-1.937.504-1.25.278.688.278 1.813 0 2.5-.277.688-.504.125-.504-1.25zm2.342-1c.275 0 .5.225.5.5s-.225.5-.5.5a.501.501 0 01-.5-.5c0-.275.225-.5.5-.5zm-5.844-1.455c-.37-.963-.072-1.257.895-.886 1.68.645 1.794 1.01.554 1.776-.493.305-1.145-.096-1.449-.89zm6.844-.545c.275 0 .5.225.5.5s-.225.5-.5.5a.501.501 0 01-.5-.5c0-.275.225-.5.5-.5zm39.5-3c0-.733.3-1.033.667-.667a.948.948 0 010 1.334c-.367.366-.667.066-.667-.667zm-6-10.441c0-1.757.6-2.015 1.457-.628.317.512.118 1.214-.441 1.56-.559.344-1.016-.075-1.016-.932zM39.241 257.57c-2.373-.911-2.69-.758-2.025.975.334.87.607 1.77.607 2 0 .23.675.418 1.5.418 1.99 0 1.928-2.622-.082-3.393zm255.48-5.607c1.658 0 8.149 6.113 7.54 7.101-1.492 2.413-6.742-.804-7.918-4.851-.379-1.302-.22-2.249.378-2.25zm-20.398 4c-.275 0-.5.225-.5.5s.225.5.5.5.5-.225.5-.5-.225-.5-.5-.5zm-6-3c-.275 0-.5.225-.5.5s.225.5.5.5.5-.225.5-.5-.225-.5-.5-.5zm-1.677-3.667c-.389-2.009-2.386-2.848-3.29-1.385-.88 1.423.242 3.052 2.099 3.052.876 0 1.378-.703 1.191-1.667zm2.677.667c-.275 0-.5.225-.5.5s.225.5.5.5.5-.225.5-.5-.225-.5-.5-.5zm-245-17c.275 0 .5.225.5.5s-.225.5-.5.5a.502.502 0 01-.5-.5c0-.275.225-.5.5-.5zm2 0c.275 0 .5.225.5.5s-.225.5-.5.5a.502.502 0 01-.5-.5c0-.275.225-.5.5-.5zm4-50c-.275 0-.5.225-.5.5s.225.5.5.5.5-.225.5-.5-.225-.5-.5-.5zm-4.5 0c.733 0 1.033.3.667.667a.948.948 0 01-1.334 0c-.366-.367-.066-.667.667-.667zm-1.281-14.918c.165-2.193-1.234-3.676-2.118-2.246-.295.478.026 1.64.713 2.579 1.154 1.578 1.263 1.552 1.405-.333zm1.781-2.082c-.275 0-.5.225-.5.5s.225.5.5.5.5-.225.5-.5-.225-.5-.5-.5zm251.7-11.799c3.351-3.351 7.363-.019 6.367 5.289-.771 4.111-2.856 4.579-5.624 1.26-2.183-2.616-2.436-4.856-.743-6.549zm-277.2 2.799c.733 0 1.033.3.667.667a.948.948 0 01-1.334 0c-.366-.367-.066-.667.667-.667zm286.094-9c.498 0 .906.9.906 2s-.173 1.999-.383 2c-.211 0-.619-.9-.907-2-.287-1.1-.115-2 .384-2zm-1.594-2c.275 0 .5.225.5.5s-.225.5-.5.5a.501.501 0 01-.5-.5c0-.275.225-.5.5-.5zm7.882-3c.275 0 .778.45 1.118 1 .34.55.393 1 .118 1s-.778-.45-1.118-1c-.34-.55-.393-1-.118-1zM18.68 133.08c.195-.064.119.503-.172 1.261-.291.758 0 1.909.643 2.557.9.904.602.968-1.277.276-3.058-1.127-3.74-2.892-1.356-3.51.992-.257 1.965-.52 2.162-.584zm8.81-1.45c1.116-1.117 2-.749 2 .833 0 .825-.6 1.5-1.334 1.5-1.419 0-1.77-1.229-.666-2.333zm266.273.333c.582 0 1.06.45 1.06 1s-.198 1-.441 1-.719-.45-1.059-1c-.34-.55-.141-.999.44-1zm2.56 1c.275 0 .5.225.5.5s-.225.5-.5.5a.501.501 0 01-.5-.5c0-.275.225-.5.5-.5zm-275.5-4c.55 0 1 .675 1 1.5s-.45 1.5-1 1.5-1-.675-1-1.5.45-1.5 1-1.5zm282 .128c3.258-1.305 5-1.362 5-.163 0 1.749-3.891 3.196-5.763 2.142-1.557-.876-1.478-1.081.763-1.979zm-288.434-3.23c3.127-1.225 4.078-.943 2.037.602-1.044.79-2.364 1.148-2.934.795-.598-.369-.218-.96.896-1.397zm276.493-.898c.518 0 .941.45.941 1s-.703 1-1.56 1c-.856 0-1.28-.45-.94-1 .34-.55 1.041-1 1.559-1zm-37.559-20c-.275 0-.5.225-.5.5s.225.5.5.5.5-.225.5-.5-.225-.5-.5-.5zm-215-3c.275 0 .5.225.5.5s-.225.5-.5.5a.502.502 0 01-.5-.5c0-.275.225-.5.5-.5zm5-1c.275 0 .5.225.5.5s-.225.5-.5.5a.502.502 0 01-.5-.5c0-.275.225-.5.5-.5zm-11.25-5.017c1.787-1.093 3.85-1.76 4.582-1.485.732.276 2.082.538 3 .581.999.047 1.176.279.442.576-.673.272-1.452.35-1.73.17-.278-.178-1.215.687-2.081 1.925-1.028 1.467-2.602 2.25-4.52 2.25-3.852 0-3.733-1.546.307-4.017zm228.25 3.017c.275 0 .5.225.5.5s-.225.5-.5.5a.501.501 0 01-.5-.5c0-.275.225-.5.5-.5zm-218-1c.275 0 .5.225.5.5s-.225.5-.5.5a.502.502 0 01-.5-.5c0-.275.225-.5.5-.5zm12.32-8.171c-.347-2.352-2.271-3.527-3.232-1.972-.907 1.468.44 4.143 2.089 4.143.932 0 1.346-.787 1.143-2.171zm184.68-14.829c.275 0 .5.225.5.5s-.225.5-.5.5a.501.501 0 01-.5-.5c0-.275.225-.5.5-.5zm34.5-2.004c0-.513.675-.721 1.5-.464.825.258 2.25.709 3.167 1.001 1.174.376 1.353.846.607 1.592-1.18 1.18-5.273-.473-5.274-2.129zM69.807 71.213c.022-1.797-1.658-1.54-2.39.364-.392 1.023-1.345 1.423-2.606 1.093-1.092-.285-1.987-.16-1.988.278 0 .439 1.195 1.099 2.655 1.466 2.667.668 4.296-.536 4.33-3.2zm174.575-2.25c-.243 0-.719.45-1.059 1-.34.55-.141 1 .44 1 .582 0 1.06-.45 1.06-1s-.198-1-.441-1zm-3.059-1c-.275 0-.5.225-.5.5s.225.5.5.5.5-.225.5-.5-.225-.5-.5-.5zm-97.083-21.92c-1.165.047-1.402.284-.604.603.721.289 1.584.253 1.916-.08.332-.331-.258-.567-1.312-.524zm37.583-2.08c-.733 0-1.033.3-.667.667a.948.948 0 001.334 0c.366-.367.066-.667-.667-.667zm-34.478-9.63c-1.136-.435-1.813.026-2.198 1.5-.307 1.172-1.18 2.13-1.941 2.13-.76 0-1.383.45-1.383 1 0 1.52 2.594 1.195 4-.5.685-.825 2.288-1.5 3.563-1.5 1.275 0 2.597-.45 2.937-1 .34-.55-.272-1-1.359-1-1.088 0-2.717-.283-3.619-.63zm-8.398 2.363c-.988-.98-1.102-.865-.56.56.376.986.935 1.54 1.243 1.233.308-.307.001-1.114-.683-1.793zm21.376-6.733c.275 0 .5.225.5.5s-.225.5-.5.5a.502.502 0 01-.5-.5c0-.275.225-.5.5-.5zm45.5-1c.733 0 1.033.3.667.667a.948.948 0 01-1.334 0c-.366-.367-.066-.667.667-.667zm5-4c.55 0 1 .198 1 .44 0 .244-.45.72-1 1.06-.55.34-1 .14-1-.441 0-.582.45-1.059 1-1.059zm-34.5 0c.275 0 .5.225.5.5s-.225.5-.5.5a.502.502 0 01-.5-.5c0-.275.225-.5.5-.5zm-3.5-6c.733 0 1.033.3.667.667a.948.948 0 01-1.334 0c-.366-.367-.066-.667.667-.667zm1-3c0-.733.3-1.033.667-.667a.948.948 0 010 1.334c-.367.366-.667.066-.667-.667zm35-2c.733 0 1.033.3.667.667a.948.948 0 01-1.334 0c-.366-.367-.066-.667.667-.667zm-31.5-1c.275 0 .5.225.5.5s-.225.5-.5.5a.502.502 0 01-.5-.5c0-.275.225-.5.5-.5zm-11-2c.275 0 .5.225.5.5s-.225.5-.5.5a.502.502 0 01-.5-.5c0-.275.225-.5.5-.5zm9.5 0c0-.733.3-1.033.667-.667a.948.948 0 010 1.334c-.367.366-.667.066-.667-.667zm-4.5-1c.275 0 .5.225.5.5s-.225.5-.5.5a.502.502 0 01-.5-.5c0-.275.225-.5.5-.5zm-38.941-3c.243 0 .441.45.441 1s-.478 1-1.06 1c-.581 0-.78-.45-.44-1s.816-1 1.059-1zm-9.559 1c.733 0 1.033.3.667.667a.948.948 0 01-1.334 0c-.366-.367-.066-.667.667-.667zm44.381-5.652c2.929-2.519 5.619-3.082 5.619-1.177 0 1.726-3.081 4.829-4.795 4.83-.816 0-2.026.74-2.688 1.645-1.062 1.452-1.184 1.375-1.035-.65.093-1.265 1.398-3.356 2.899-4.648z" fill="#6D9A02" id="c" data-figma-scatter-ref="stroke2_19_118_ref" data-figma-scatter="f0.51_w0.06_aj180_sj0.65_r0_s3173664043738980398_sw5"/></defs></svg>