<svg width="20" height="20" fill="none" xmlns="http://www.w3.org/2000/svg"><g clip-path="url(#a)"><path d="M9.755 12.293L5.91 7.646s-.585-.552.05-.552h2.166V.329S8.04 0 8.536 0h3.05c.358 0 .35.278.35.278V6.954h2c.77 0 .19.579.19.579s-3.271 4.343-3.727 4.799c-.329.33-.644-.039-.644-.039zM16.988 12.744v4.569H3.011v-4.569H.325v5.912c0 .74.6 1.342 1.345 1.342h16.66c.744 0 1.345-.6 1.345-1.342v-5.912h-2.687z" fill="#000"/></g><defs><clipPath id="a"><path fill="#fff" d="M0 0H20V19.998H0z"/></clipPath></defs></svg>